<svg id="svg" version="1.1" xmlns="http://www.w3.org/2000/svg" xmlns:xlink="http://www.w3.org/1999/xlink" width="20px" height="20px" viewBox="0, 0, 400,400"><g id="svgg"><path id="path0" d="M30.000 1.000 C 30.000 1.971,29.916 2.001,27.100 2.039 C 21.645 2.114,22.184 1.788,22.039 5.100 C 22.002 5.962,21.852 6.000,18.480 6.000 C 14.475 6.000,14.000 6.263,14.000 8.480 C 14.000 9.973,13.973 10.000,12.480 10.000 C 10.564 10.000,10.000 10.564,10.000 12.480 C 10.000 13.979,9.978 14.000,8.449 14.000 C 6.325 14.000,6.034 14.529,6.042 18.362 C 6.050 22.240,6.171 22.024,3.944 22.123 C 1.979 22.210,2.111 21.866,2.039 27.100 C 2.001 29.916,1.971 30.000,1.000 30.000 L 0.000 30.000 0.000 193.000 L 0.000 356.000 1.133 356.000 C 1.757 356.000,2.291 356.225,2.320 356.500 C 2.501 358.211,4.026 364.902,4.390 365.582 C 4.631 366.032,4.712 366.400,4.570 366.400 C 4.428 366.400,4.944 366.985,5.717 367.700 C 6.613 368.528,7.371 369.775,7.806 371.137 C 8.181 372.312,8.982 373.842,9.586 374.537 C 10.966 376.126,11.517 377.174,12.224 379.555 C 12.984 382.114,17.790 387.008,20.176 387.651 C 22.873 388.379,24.054 388.897,25.180 389.844 C 26.201 390.704,27.456 391.256,30.951 392.387 C 31.805 392.663,33.250 393.416,34.163 394.059 L 35.823 395.229 199.732 395.214 C 374.483 395.198,364.822 395.301,366.368 393.439 C 366.648 393.101,368.345 392.377,370.139 391.829 C 371.932 391.282,374.120 390.308,375.000 389.667 C 375.880 389.025,377.631 388.203,378.890 387.841 C 382.925 386.682,386.966 382.631,388.191 378.518 C 388.533 377.373,389.353 375.844,390.014 375.121 C 391.042 373.995,392.800 370.282,392.800 369.236 C 392.800 369.052,393.459 368.339,394.264 367.651 C 395.070 366.963,395.604 366.400,395.450 366.400 C 395.297 366.400,395.361 366.047,395.592 365.615 C 395.823 365.184,396.357 363.159,396.778 361.115 C 397.773 356.289,397.902 356.000,399.043 356.000 L 400.000 356.000 400.000 193.000 L 400.000 30.000 399.000 30.000 C 398.029 30.000,397.999 29.916,397.961 27.100 C 397.889 21.866,398.021 22.210,396.056 22.123 C 393.829 22.024,393.950 22.240,393.958 18.362 C 393.966 14.529,393.675 14.000,391.551 14.000 C 390.022 14.000,390.000 13.979,390.000 12.480 C 390.000 10.564,389.436 10.000,387.520 10.000 C 386.027 10.000,386.000 9.973,386.000 8.480 C 386.000 6.263,385.525 6.000,381.520 6.000 C 378.148 6.000,377.998 5.962,377.961 5.100 C 377.816 1.788,378.355 2.114,372.900 2.039 C 370.084 2.001,370.000 1.971,370.000 1.000 L 370.000 0.000 200.000 0.000 L 30.000 0.000 30.000 1.000 M207.600 51.207 C 216.451 51.659,219.119 52.082,221.400 53.393 C 223.125 54.384,224.865 54.928,228.539 55.628 C 230.230 55.950,231.283 56.438,232.339 57.390 C 233.257 58.217,234.721 58.964,236.278 59.400 C 238.079 59.904,239.100 60.471,240.015 61.477 C 240.708 62.238,242.060 63.197,243.020 63.609 C 243.981 64.020,244.999 64.742,245.283 65.213 C 245.567 65.683,246.693 66.525,247.784 67.083 C 250.626 68.538,259.409 77.485,260.645 80.186 C 261.164 81.319,262.031 82.630,262.572 83.101 C 263.113 83.571,264.029 84.956,264.607 86.178 C 265.739 88.571,266.006 88.757,266.851 87.740 C 267.286 87.217,267.442 84.049,267.600 72.548 L 267.800 58.017 268.909 56.909 L 270.018 55.800 281.309 55.800 C 293.632 55.800,294.453 55.898,295.495 57.490 C 296.157 58.503,296.208 61.708,296.333 110.584 C 296.754 274.749,296.801 270.928,294.284 275.142 C 293.648 276.208,293.414 277.608,293.148 281.957 C 292.783 287.908,292.192 290.482,290.669 292.739 C 289.983 293.756,289.539 295.229,289.207 297.587 C 288.681 301.329,288.179 302.566,286.649 303.888 C 286.084 304.377,285.508 305.277,285.370 305.888 C 284.590 309.351,284.217 310.228,282.989 311.492 C 282.245 312.259,281.341 313.774,280.981 314.859 C 280.578 316.069,279.879 317.161,279.171 317.685 C 278.536 318.154,277.809 319.167,277.555 319.936 C 277.301 320.705,275.903 322.558,274.447 324.054 C 272.991 325.550,271.620 326.958,271.400 327.184 C 269.305 329.333,264.205 333.600,263.732 333.600 C 263.402 333.600,262.578 334.225,261.902 334.989 C 261.157 335.831,259.903 336.633,258.721 337.026 C 257.585 337.404,256.501 338.085,256.125 338.658 C 255.272 339.960,253.890 340.634,250.992 341.160 C 249.311 341.465,248.362 341.878,247.800 342.549 C 246.467 344.141,244.568 344.826,240.549 345.165 C 237.588 345.415,236.506 345.675,235.672 346.340 C 232.777 348.648,230.110 349.155,220.600 349.209 C 212.339 349.256,208.741 349.673,207.381 350.743 C 205.941 351.876,194.090 352.072,193.182 350.978 C 192.045 349.608,190.933 349.424,182.200 349.161 C 172.326 348.862,169.857 348.458,168.046 346.841 C 166.986 345.895,166.225 345.658,162.972 345.258 C 158.701 344.733,156.704 344.045,155.417 342.656 C 154.807 341.998,153.720 341.565,151.774 341.202 C 149.387 340.758,148.799 340.471,147.561 339.143 C 146.770 338.294,145.861 337.600,145.540 337.600 C 144.459 337.600,140.872 335.570,140.235 334.597 C 139.888 334.067,138.887 333.419,138.013 333.157 C 136.229 332.622,134.800 331.472,134.800 330.570 C 134.800 330.241,134.009 329.632,133.042 329.218 C 131.664 328.627,131.182 328.159,130.818 327.055 C 130.461 325.973,130.027 325.539,128.945 325.182 C 127.841 324.818,127.373 324.336,126.782 322.958 C 126.368 321.991,125.783 321.200,125.484 321.200 C 124.777 321.200,123.369 319.653,123.015 318.488 C 122.863 317.987,121.965 316.814,121.019 315.881 C 119.646 314.528,119.194 313.716,118.777 311.855 C 118.408 310.204,117.979 309.343,117.307 308.903 C 115.899 307.980,115.344 306.587,114.829 302.680 C 114.316 298.789,114.032 297.933,112.704 296.267 C 111.210 294.394,111.363 286.455,112.922 284.897 L 114.020 283.800 124.910 283.919 C 139.442 284.078,140.072 284.326,141.229 290.332 C 141.573 292.118,142.089 293.309,142.980 294.376 C 143.902 295.480,144.445 296.771,144.990 299.155 C 145.617 301.902,145.900 302.500,146.767 302.916 C 147.334 303.188,148.169 304.124,148.622 304.998 C 149.107 305.932,150.031 306.893,150.869 307.334 C 151.666 307.754,152.535 308.637,152.846 309.342 C 153.170 310.078,153.965 310.865,154.761 311.239 C 155.559 311.614,156.386 312.434,156.761 313.223 C 157.256 314.265,157.791 314.681,159.134 315.069 C 160.088 315.344,161.563 316.196,162.412 316.963 C 163.804 318.221,164.722 318.611,168.024 319.348 C 168.587 319.474,169.667 320.031,170.424 320.585 C 172.408 322.039,174.194 322.800,175.622 322.800 C 179.434 322.800,187.122 324.101,189.200 325.099 C 192.611 326.736,208.414 326.993,212.400 325.477 C 215.278 324.382,219.957 323.390,224.122 322.992 C 227.685 322.651,228.982 322.254,230.381 321.077 C 231.376 320.240,233.810 319.415,237.600 318.630 C 238.157 318.514,238.898 317.893,239.273 317.226 C 239.663 316.532,240.718 315.666,241.786 315.165 C 242.797 314.689,243.797 313.980,244.006 313.589 C 244.215 313.198,245.334 312.193,246.493 311.356 C 249.308 309.322,250.227 308.315,251.423 305.955 C 251.980 304.856,252.873 303.768,253.423 303.517 C 254.137 303.191,254.587 302.480,255.020 300.991 C 255.351 299.851,256.245 298.191,257.005 297.303 C 257.867 296.296,258.614 294.819,258.988 293.383 C 259.574 291.131,259.894 290.525,261.659 288.323 C 262.360 287.448,262.592 286.397,262.897 282.723 C 263.190 279.190,263.623 277.150,264.877 273.400 C 266.809 267.621,267.142 263.201,267.178 242.846 C 267.205 227.566,266.718 224.620,264.972 229.500 C 264.381 231.153,263.794 232.025,262.884 232.600 C 262.124 233.081,261.465 233.932,261.232 234.734 C 261.020 235.468,260.070 236.931,259.123 237.985 C 258.175 239.040,256.794 240.734,256.053 241.751 C 255.313 242.768,254.593 243.603,254.453 243.607 C 254.314 243.611,253.030 244.711,251.600 246.052 C 250.170 247.393,248.269 248.823,247.375 249.230 C 246.482 249.637,245.512 250.418,245.219 250.964 C 244.926 251.511,243.948 252.250,243.044 252.607 C 242.140 252.963,240.763 253.943,239.985 254.785 C 238.667 256.210,236.517 257.192,234.700 257.198 C 234.316 257.199,233.272 257.908,232.380 258.773 C 230.707 260.396,230.495 260.475,225.800 261.231 C 224.160 261.495,222.420 262.069,221.600 262.618 C 218.668 264.580,218.701 264.577,201.400 264.721 C 183.465 264.870,178.101 264.541,176.400 263.188 C 174.822 261.933,173.815 261.631,169.677 261.171 C 164.854 260.634,163.338 260.180,161.743 258.792 C 160.887 258.049,159.509 257.482,157.433 257.020 C 154.997 256.478,154.017 256.027,152.581 254.783 C 151.591 253.927,150.075 253.036,149.212 252.803 C 148.332 252.566,147.238 251.880,146.721 251.241 C 146.215 250.614,144.679 249.605,143.309 249.000 C 141.764 248.317,140.426 247.385,139.786 246.546 C 139.218 245.801,138.037 244.827,137.161 244.380 C 136.285 243.933,135.375 243.143,135.138 242.624 C 134.902 242.105,134.028 241.373,133.196 240.998 C 132.151 240.527,131.473 239.849,131.002 238.804 C 130.627 237.972,129.895 237.098,129.376 236.862 C 128.857 236.625,128.067 235.715,127.620 234.839 C 127.173 233.963,126.199 232.782,125.454 232.214 C 124.615 231.574,123.683 230.236,123.000 228.691 C 122.395 227.321,121.386 225.785,120.759 225.279 C 120.128 224.768,119.434 223.670,119.204 222.815 C 118.976 221.968,118.077 220.412,117.207 219.359 C 116.084 218.000,115.492 216.799,115.167 215.222 C 114.639 212.652,114.248 211.783,112.999 210.400 C 111.914 209.198,111.396 207.590,110.808 203.600 C 110.506 201.558,110.035 200.122,109.331 199.104 C 108.039 197.235,107.385 194.470,107.029 189.373 C 106.690 184.523,105.831 179.674,104.837 177.000 C 103.443 173.248,103.437 170.687,104.764 146.000 C 104.952 142.502,105.233 140.638,105.699 139.795 C 106.106 139.056,106.616 136.343,107.013 132.795 C 107.810 125.671,108.517 122.439,109.754 120.269 C 110.280 119.345,111.019 116.904,111.409 114.800 C 112.125 110.936,112.470 110.056,114.217 107.641 C 114.758 106.893,115.204 105.903,115.209 105.441 C 115.222 104.188,116.645 101.282,118.003 99.735 C 118.661 98.986,119.200 98.099,119.200 97.766 C 119.200 96.940,120.305 94.848,121.496 93.423 C 122.036 92.775,122.884 91.328,123.380 90.208 C 123.875 89.087,124.754 87.860,125.332 87.481 C 125.910 87.102,126.684 86.212,127.051 85.502 C 127.936 83.790,132.368 78.864,133.285 78.573 C 133.683 78.447,134.265 77.848,134.578 77.242 C 135.263 75.917,138.947 72.116,140.839 70.782 C 141.587 70.254,142.509 69.436,142.886 68.965 C 143.264 68.494,144.164 67.876,144.886 67.592 C 145.609 67.308,146.921 66.389,147.803 65.550 C 148.761 64.638,150.342 63.702,151.732 63.223 C 153.032 62.776,154.543 61.903,155.160 61.243 C 155.881 60.471,157.083 59.837,158.631 59.413 C 161.153 58.722,162.620 58.080,164.680 56.766 C 165.420 56.294,167.755 55.633,170.226 55.195 C 172.572 54.780,174.793 54.168,175.161 53.836 C 176.920 52.243,183.128 51.311,193.600 51.067 C 195.910 51.013,198.250 50.932,198.800 50.888 C 199.350 50.844,203.310 50.987,207.600 51.207 M192.766 74.615 C 191.257 75.163,183.796 76.542,179.904 76.992 C 178.104 77.199,177.256 77.551,175.977 78.619 C 174.996 79.439,173.270 80.303,171.650 80.785 C 169.948 81.292,168.624 81.968,168.057 82.621 C 167.563 83.189,166.120 84.145,164.851 84.745 C 162.621 85.799,161.458 86.782,156.120 92.120 C 155.350 92.890,154.423 93.826,154.060 94.201 C 153.697 94.575,152.571 95.720,151.557 96.744 C 150.544 97.769,149.342 99.338,148.886 100.231 C 148.430 101.125,147.429 102.608,146.661 103.527 C 145.893 104.446,144.977 106.053,144.625 107.099 C 144.273 108.145,143.375 109.699,142.630 110.552 C 141.884 111.406,141.082 112.846,140.847 113.752 C 140.611 114.659,140.234 116.140,140.009 117.045 C 139.783 117.950,139.142 119.363,138.584 120.185 C 137.519 121.755,136.653 124.971,136.210 129.000 C 135.872 132.079,135.387 133.982,134.130 137.173 C 131.973 142.646,131.980 173.069,134.140 178.049 C 135.172 180.430,136.337 185.512,136.949 190.303 C 137.463 194.338,137.650 194.951,138.740 196.193 C 139.893 197.505,140.793 199.746,140.798 201.313 C 140.801 202.490,141.922 204.805,143.182 206.240 C 143.833 206.982,144.567 208.334,144.812 209.243 C 145.057 210.153,145.764 211.370,146.385 211.949 C 147.005 212.527,148.140 213.990,148.908 215.200 C 149.676 216.410,150.712 217.760,151.210 218.200 C 151.708 218.640,152.459 219.766,152.878 220.703 C 153.424 221.924,154.032 222.570,155.022 222.983 C 155.795 223.306,156.760 224.164,157.212 224.930 C 157.765 225.868,158.592 226.518,159.842 226.995 C 160.844 227.377,162.287 228.313,163.048 229.074 C 163.808 229.835,165.383 230.879,166.546 231.393 C 167.709 231.908,168.950 232.769,169.303 233.308 C 169.778 234.032,170.707 234.484,172.872 235.043 C 174.483 235.459,176.680 236.389,177.756 237.110 C 180.113 238.690,182.028 239.175,186.000 239.197 C 187.650 239.206,190.260 239.481,191.800 239.807 C 195.016 240.488,204.873 240.607,208.600 240.009 C 209.920 239.797,212.810 239.456,215.021 239.250 C 219.114 238.870,220.994 238.277,222.822 236.791 C 223.384 236.334,225.184 235.618,226.822 235.200 C 229.092 234.621,230.038 234.158,230.800 233.256 C 231.350 232.605,232.568 231.765,233.507 231.390 C 234.447 231.014,235.583 230.239,236.033 229.667 C 236.483 229.095,237.804 227.991,238.968 227.213 C 240.896 225.926,242.937 223.909,248.693 217.600 C 249.797 216.390,251.090 214.628,251.566 213.684 C 252.043 212.740,252.863 211.772,253.389 211.532 C 254.375 211.083,254.957 209.974,255.410 207.683 C 255.554 206.959,256.354 205.577,257.189 204.612 C 258.424 203.186,258.796 202.347,259.179 200.129 C 259.658 197.354,260.390 195.791,261.621 194.910 C 262.300 194.424,262.908 191.785,263.394 187.200 C 263.523 185.990,264.327 182.750,265.181 180.000 C 267.109 173.797,267.436 169.743,267.313 153.608 C 267.224 141.780,267.014 139.816,265.413 135.800 C 264.887 134.480,264.177 131.420,263.834 129.000 C 263.051 123.462,262.551 121.694,261.370 120.291 C 260.401 119.140,259.606 116.889,259.602 115.287 C 259.599 113.934,258.557 111.685,257.238 110.182 C 256.597 109.452,255.791 107.887,255.447 106.703 C 255.043 105.314,254.379 104.157,253.571 103.437 C 252.883 102.824,251.861 101.305,251.300 100.061 C 250.739 98.818,249.701 97.312,248.995 96.717 C 248.289 96.121,247.496 95.131,247.233 94.517 C 246.970 93.902,246.182 93.038,245.482 92.595 C 244.783 92.152,243.848 91.231,243.405 90.547 C 242.962 89.863,241.859 88.908,240.953 88.424 C 240.047 87.941,239.080 87.123,238.804 86.608 C 238.529 86.093,237.559 85.388,236.649 85.040 C 235.740 84.693,234.121 83.686,233.052 82.802 C 231.925 81.871,230.204 80.933,228.960 80.571 C 227.778 80.228,226.080 79.335,225.185 78.588 C 223.457 77.143,223.121 77.051,217.200 76.396 C 214.669 76.116,212.719 75.646,211.360 74.988 C 208.952 73.822,195.680 73.555,192.766 74.615 " stroke="none" fill="#ebe8d5" fill-rule="evenodd"></path><path id="path1" d="M189.455 54.600 C 189.582 54.930,189.827 55.200,190.000 55.200 C 190.173 55.200,190.418 54.930,190.545 54.600 C 190.700 54.194,190.524 54.000,190.000 54.000 C 189.476 54.000,189.300 54.194,189.455 54.600 M194.371 56.260 C 193.617 56.880,192.871 57.570,192.714 57.794 C 192.528 58.058,188.482 58.151,181.110 58.058 L 169.791 57.917 169.292 59.296 C 168.675 61.003,167.588 61.521,163.904 61.864 C 161.405 62.096,160.916 62.277,160.072 63.279 C 158.776 64.819,157.166 65.600,155.287 65.600 C 153.933 65.600,153.610 65.791,152.767 67.095 C 151.683 68.770,150.270 69.586,147.908 69.903 C 146.576 70.082,146.221 70.332,145.773 71.403 C 145.283 72.575,144.662 72.997,142.338 73.735 C 141.973 73.851,141.557 74.486,141.412 75.145 C 141.103 76.552,140.608 77.032,139.069 77.419 C 138.355 77.598,137.806 78.086,137.571 78.751 C 136.938 80.543,136.590 80.932,135.200 81.400 C 134.209 81.734,133.734 82.209,133.400 83.200 C 132.932 84.589,132.542 84.938,130.756 85.569 C 129.956 85.851,129.653 86.296,129.457 87.469 C 129.282 88.514,128.706 89.486,127.640 90.531 C 126.587 91.564,125.927 92.670,125.610 93.931 C 125.083 96.027,124.214 97.200,123.187 97.200 C 122.139 97.200,121.730 97.983,121.488 100.451 C 121.223 103.165,120.681 104.118,118.929 104.953 C 117.811 105.487,117.600 105.802,117.600 106.939 C 117.600 110.093,116.821 112.545,115.336 114.066 C 113.917 115.518,113.877 115.646,113.516 119.876 C 113.031 125.565,112.620 127.042,111.284 127.892 C 109.660 128.925,109.714 128.595,109.425 139.147 C 109.147 149.276,108.180 164.666,107.750 165.785 C 106.990 167.767,109.248 189.935,110.411 191.908 C 111.406 193.595,112.290 196.769,112.610 199.800 C 112.948 203.007,113.497 204.665,114.829 206.504 C 115.502 207.432,116.217 209.256,116.640 211.119 C 117.120 213.240,117.677 214.574,118.424 215.400 C 119.737 216.850,120.566 218.443,121.162 220.656 C 121.433 221.663,122.008 222.575,122.629 222.982 C 123.191 223.350,123.989 224.441,124.402 225.405 C 124.816 226.370,125.727 227.753,126.428 228.480 C 127.129 229.206,128.377 230.700,129.202 231.800 C 130.027 232.900,131.169 234.231,131.739 234.759 C 132.310 235.286,132.973 236.311,133.212 237.035 C 133.524 237.982,134.007 238.473,134.923 238.779 C 135.625 239.013,136.830 239.792,137.600 240.510 C 138.370 241.228,139.810 242.433,140.800 243.189 C 141.790 243.944,143.178 245.140,143.885 245.846 C 144.592 246.552,145.704 247.247,146.356 247.390 C 147.458 247.632,149.600 249.350,149.600 249.991 C 149.600 250.146,150.725 250.614,152.100 251.029 C 153.617 251.488,155.186 252.314,156.090 253.130 C 157.271 254.196,158.273 254.626,160.924 255.206 C 162.764 255.608,165.425 256.550,166.838 257.299 C 169.158 258.530,170.026 258.733,175.803 259.388 C 179.322 259.788,183.627 260.539,185.370 261.057 C 189.925 262.411,208.829 262.499,212.637 261.184 C 213.937 260.735,217.663 259.937,220.918 259.410 C 226.249 258.546,226.973 258.331,228.213 257.243 C 229.443 256.163,232.836 254.800,234.295 254.800 C 234.598 254.800,235.330 254.275,235.923 253.634 C 237.024 252.442,240.506 250.400,241.437 250.400 C 241.722 250.400,242.272 249.862,242.661 249.205 C 243.049 248.548,244.107 247.662,245.012 247.236 C 245.917 246.811,247.148 245.819,247.749 245.032 C 248.349 244.244,249.035 243.600,249.273 243.600 C 249.888 243.600,255.483 237.798,255.785 236.848 C 255.923 236.413,256.640 235.702,257.378 235.266 C 258.272 234.738,258.812 234.056,258.996 233.220 C 259.147 232.531,259.956 231.175,260.793 230.208 C 261.630 229.241,262.634 227.584,263.024 226.525 C 264.322 223.002,267.347 221.588,269.335 223.574 C 269.981 224.220,270.201 254.310,269.588 258.200 C 269.345 259.740,269.057 263.880,268.947 267.400 C 268.716 274.785,268.073 278.497,266.650 280.665 C 265.863 281.863,265.512 283.211,265.050 286.800 C 264.479 291.243,264.411 291.441,263.078 292.600 C 261.979 293.556,261.597 294.289,261.203 296.200 C 260.601 299.123,259.933 300.490,258.718 301.286 C 258.170 301.645,257.598 302.626,257.310 303.703 C 257.019 304.792,256.234 306.132,255.345 307.058 C 254.530 307.906,253.475 309.320,253.001 310.200 C 252.526 311.080,251.451 312.267,250.613 312.837 C 249.774 313.408,248.837 314.353,248.531 314.937 C 248.225 315.521,247.125 316.432,246.087 316.960 C 245.049 317.488,243.750 318.406,243.200 318.998 C 241.983 320.310,240.665 321.009,238.762 321.353 C 237.743 321.537,236.954 322.073,236.057 323.189 C 234.671 324.913,234.370 325.010,228.696 325.561 C 225.638 325.858,225.092 326.030,224.397 326.913 C 222.697 329.075,221.065 329.303,205.922 329.502 C 186.450 329.757,179.915 329.127,178.314 326.841 C 177.845 326.171,177.033 325.911,174.362 325.573 C 168.357 324.815,168.350 324.812,166.774 323.221 C 165.661 322.097,164.815 321.633,163.522 321.439 C 161.358 321.115,159.294 319.899,158.828 318.675 C 158.596 318.064,157.913 317.581,156.819 317.253 C 155.710 316.921,154.917 316.353,154.421 315.538 C 154.013 314.868,153.115 313.976,152.424 313.556 C 151.734 313.136,150.803 312.172,150.355 311.414 C 149.908 310.656,149.231 309.937,148.851 309.816 C 147.543 309.401,143.289 304.215,142.816 302.459 C 142.544 301.448,141.820 300.292,140.984 299.531 C 139.372 298.064,138.805 296.351,138.802 292.933 C 138.799 289.003,139.122 289.200,132.678 289.200 C 129.579 289.200,124.988 288.999,122.476 288.754 C 116.109 288.132,115.931 288.311,116.443 294.800 C 116.852 299.977,117.468 303.471,118.035 303.821 C 118.613 304.179,120.261 307.599,120.776 309.509 C 121.027 310.442,121.755 311.740,122.394 312.394 C 123.033 313.048,124.049 314.442,124.651 315.491 C 125.638 317.213,127.892 320.058,129.968 322.200 C 135.172 327.573,138.246 330.180,140.734 331.333 C 141.883 331.865,143.431 332.927,144.176 333.694 C 145.014 334.557,146.196 335.255,147.284 335.529 C 148.249 335.772,149.660 336.420,150.419 336.968 C 152.707 338.621,153.698 339.081,156.000 339.561 C 157.210 339.813,159.640 340.725,161.400 341.589 C 164.036 342.882,165.411 343.269,169.198 343.781 C 172.198 344.188,174.492 344.741,175.798 345.373 C 181.729 348.243,221.788 348.240,227.543 345.368 C 228.683 344.800,230.997 344.278,239.000 342.782 C 240.336 342.533,242.167 341.828,243.131 341.192 C 244.083 340.564,246.153 339.758,247.731 339.401 C 249.809 338.930,250.938 338.426,251.825 337.570 C 252.498 336.920,254.264 335.877,255.748 335.250 C 257.232 334.624,258.729 333.708,259.074 333.215 C 259.420 332.722,260.262 332.083,260.945 331.796 C 263.613 330.674,274.644 319.705,275.738 317.087 C 276.049 316.343,276.733 315.389,277.258 314.967 C 277.783 314.545,278.717 313.006,279.332 311.546 C 279.948 310.086,280.892 308.477,281.431 307.971 C 282.012 307.425,282.749 305.901,283.243 304.225 C 283.704 302.659,284.657 300.646,285.380 299.709 C 286.407 298.377,286.788 297.358,287.175 294.909 C 288.103 289.042,288.454 287.617,289.426 285.790 C 290.921 282.978,291.840 274.854,292.347 259.980 C 292.555 253.879,292.724 252.370,293.300 251.494 C 293.956 250.496,294.000 247.734,294.000 207.977 L 294.000 165.525 292.744 161.483 L 291.489 157.442 291.844 133.221 C 292.293 102.638,292.297 81.797,291.854 70.800 C 291.425 60.148,291.493 60.288,287.101 61.059 C 283.797 61.639,279.138 61.708,276.200 61.220 C 272.192 60.556,272.256 60.303,272.225 77.068 L 272.200 90.735 271.230 91.768 C 269.155 93.977,263.452 93.019,262.379 90.281 C 262.103 89.576,261.081 88.170,260.108 87.155 C 258.808 85.799,258.282 84.890,258.126 83.726 C 257.945 82.373,257.731 82.087,256.665 81.771 C 255.517 81.429,255.213 81.047,254.002 78.417 C 253.855 78.096,253.186 77.692,252.516 77.518 C 251.363 77.219,251.042 76.763,250.250 74.300 C 250.126 73.915,249.651 73.600,249.194 73.600 C 248.131 73.600,246.400 71.881,246.400 70.826 C 246.400 70.265,246.061 69.943,245.300 69.780 C 243.596 69.415,242.400 68.856,242.400 68.424 C 242.400 67.606,240.588 66.395,238.435 65.774 C 235.897 65.041,234.978 64.364,234.628 62.971 C 234.407 62.090,234.180 62.000,232.180 62.000 C 229.116 62.000,227.313 61.167,226.580 59.414 C 226.225 58.563,225.713 58.001,225.295 58.002 C 224.913 58.003,221.630 58.195,218.000 58.429 C 209.250 58.993,207.497 58.769,205.754 56.865 L 204.413 55.400 200.077 55.266 C 195.824 55.136,195.715 55.154,194.371 56.260 M214.663 71.640 C 216.363 71.936,217.656 72.450,218.609 73.207 C 219.971 74.290,220.536 74.452,225.000 75.044 C 226.623 75.259,227.265 75.594,228.405 76.819 C 229.380 77.865,230.300 78.417,231.405 78.618 C 234.265 79.137,235.928 80.011,236.768 81.436 C 237.328 82.385,237.865 82.800,238.533 82.800 C 239.670 82.800,241.600 84.212,241.600 85.043 C 241.600 85.365,242.391 85.968,243.358 86.382 C 244.745 86.977,245.217 87.439,245.589 88.568 C 245.931 89.604,246.358 90.070,247.131 90.254 C 248.599 90.602,249.508 91.472,249.802 92.811 C 249.972 93.582,250.416 94.067,251.206 94.342 C 252.158 94.674,252.477 95.141,253.016 96.996 C 253.506 98.680,253.913 99.339,254.635 99.613 C 255.863 100.080,257.077 102.068,257.416 104.166 C 257.610 105.366,258.091 106.172,259.226 107.200 C 260.571 108.418,260.848 108.982,261.358 111.543 C 261.772 113.623,262.187 114.656,262.774 115.067 C 264.153 116.033,264.776 117.757,265.357 122.214 C 265.813 125.716,266.059 126.566,266.757 127.055 C 268.829 128.506,269.197 130.535,269.544 142.400 L 269.807 151.400 271.103 152.669 C 273.021 154.546,273.088 160.906,271.218 163.450 C 269.645 165.589,269.331 167.315,269.009 175.600 C 268.692 183.780,268.349 185.729,266.814 188.073 C 265.950 189.393,265.574 190.640,265.219 193.361 C 264.739 197.034,263.859 199.303,262.461 200.471 C 261.970 200.882,261.548 201.892,261.376 203.071 C 260.966 205.886,260.060 207.903,258.804 208.797 C 258.097 209.301,257.544 210.200,257.269 211.294 C 257.015 212.300,256.101 213.867,255.045 215.103 C 254.059 216.258,253.130 217.608,252.979 218.102 C 252.612 219.306,251.602 220.415,250.481 220.843 C 249.975 221.037,249.298 221.825,248.976 222.595 C 248.639 223.402,247.742 224.405,246.858 224.963 C 246.015 225.495,245.097 226.482,244.818 227.156 C 244.493 227.940,243.774 228.618,242.820 229.039 C 241.949 229.423,241.039 230.237,240.630 230.996 C 240.177 231.838,239.246 232.616,237.992 233.204 C 236.925 233.703,235.381 234.800,234.559 235.641 C 233.440 236.788,232.623 237.238,231.296 237.436 C 229.979 237.634,229.204 238.057,228.263 239.090 C 226.413 241.123,225.820 241.335,221.226 241.600 C 218.185 241.776,217.003 241.992,216.868 242.397 C 215.945 245.164,213.961 245.590,201.964 245.596 C 189.276 245.602,186.342 245.200,184.109 243.151 C 182.470 241.647,182.329 241.600,179.509 241.598 C 175.527 241.595,173.676 241.006,172.000 239.210 C 170.919 238.051,170.181 237.647,168.764 237.440 C 167.375 237.236,166.596 236.821,165.564 235.735 C 164.814 234.946,163.249 233.872,162.086 233.349 C 160.675 232.714,159.709 231.952,159.181 231.058 C 158.684 230.216,157.794 229.483,156.787 229.088 C 155.612 228.626,155.028 228.085,154.600 227.063 C 154.167 226.026,153.697 225.597,152.771 225.394 C 151.827 225.186,151.356 224.743,150.829 223.565 C 150.446 222.709,149.518 221.599,148.766 221.096 C 147.929 220.536,147.245 219.655,147.000 218.820 C 146.742 217.940,146.125 217.176,145.258 216.664 C 143.904 215.864,142.400 213.164,142.400 211.533 C 142.400 211.092,141.766 210.171,140.991 209.485 C 139.599 208.252,138.400 205.409,138.400 203.341 C 138.400 202.839,137.849 201.864,137.175 201.175 C 135.561 199.523,134.400 194.879,134.400 190.074 C 134.400 189.878,133.936 189.217,133.370 188.605 C 131.753 186.861,131.605 186.062,130.998 175.834 C 130.398 165.704,130.286 164.931,129.142 162.992 C 127.745 160.624,127.657 154.307,129.001 152.962 C 130.313 151.650,130.303 151.729,130.770 139.800 C 131.133 130.530,131.340 129.457,133.163 127.381 C 134.081 126.336,134.348 125.566,134.565 123.345 C 135.153 117.326,135.224 117.080,136.795 115.600 C 137.847 114.609,138.357 113.732,138.538 112.600 C 139.086 109.163,139.624 107.959,140.964 107.168 C 142.040 106.533,142.361 106.008,142.760 104.222 C 143.284 101.880,144.363 100.193,145.585 99.805 C 146.014 99.669,146.649 98.773,147.037 97.758 C 147.538 96.446,148.107 95.759,149.125 95.237 C 149.923 94.827,150.799 93.936,151.164 93.162 C 151.542 92.363,152.363 91.542,153.164 91.164 C 153.965 90.785,154.785 89.965,155.164 89.164 C 155.548 88.349,156.364 87.541,157.201 87.146 C 157.969 86.783,158.876 85.972,159.217 85.343 C 159.575 84.682,160.687 83.778,161.854 83.200 C 162.964 82.650,164.396 81.618,165.036 80.906 C 165.875 79.974,166.861 79.444,168.568 79.011 C 170.295 78.571,171.270 78.043,172.174 77.057 C 173.475 75.636,173.864 75.506,179.000 74.782 C 181.705 74.401,182.400 74.140,183.494 73.094 C 184.330 72.293,185.390 71.757,186.494 71.578 C 189.367 71.110,211.906 71.160,214.663 71.640 M393.415 381.975 C 393.288 382.182,392.826 382.282,392.390 382.198 C 391.715 382.068,391.658 382.161,392.012 382.823 C 392.504 383.742,392.876 383.863,392.543 382.995 C 392.383 382.579,392.495 382.462,392.904 382.618 C 393.236 382.746,393.602 382.572,393.736 382.223 C 393.998 381.541,393.785 381.377,393.415 381.975 M390.160 384.629 C 390.160 385.163,390.323 385.600,390.523 385.600 C 390.722 385.600,390.774 385.310,390.638 384.955 C 390.461 384.494,390.563 384.377,390.995 384.543 C 391.836 384.865,391.754 384.511,390.880 384.043 C 390.279 383.721,390.160 383.817,390.160 384.629 M6.000 384.520 C 6.000 384.806,6.216 385.256,6.480 385.520 C 7.056 386.096,8.000 386.154,8.000 385.613 C 8.000 385.399,7.685 385.343,7.300 385.487 C 6.664 385.726,6.655 385.679,7.200 384.975 C 7.767 384.242,7.758 384.233,7.025 384.800 C 6.321 385.345,6.274 385.336,6.513 384.700 C 6.657 384.315,6.601 384.000,6.387 384.000 C 6.174 384.000,6.000 384.234,6.000 384.520 M393.487 384.700 C 393.726 385.336,393.679 385.345,392.975 384.800 C 392.242 384.233,392.233 384.242,392.800 384.975 C 393.345 385.679,393.336 385.726,392.700 385.487 C 392.315 385.343,392.000 385.399,392.000 385.613 C 392.000 386.154,392.944 386.096,393.520 385.520 C 394.096 384.944,394.154 384.000,393.613 384.000 C 393.399 384.000,393.343 384.315,393.487 384.700 M10.000 388.520 C 10.000 388.806,10.216 389.256,10.480 389.520 C 11.056 390.096,12.000 390.154,12.000 389.613 C 12.000 389.399,11.685 389.343,11.300 389.487 C 10.664 389.726,10.655 389.679,11.200 388.975 C 11.767 388.242,11.758 388.233,11.025 388.800 C 10.321 389.345,10.274 389.336,10.513 388.700 C 10.657 388.315,10.601 388.000,10.387 388.000 C 10.174 388.000,10.000 388.234,10.000 388.520 M389.487 388.700 C 389.726 389.336,389.679 389.345,388.975 388.800 C 388.242 388.233,388.233 388.242,388.800 388.975 C 389.345 389.679,389.336 389.726,388.700 389.487 C 388.315 389.343,388.000 389.399,388.000 389.613 C 388.000 390.154,388.944 390.096,389.520 389.520 C 390.096 388.944,390.154 388.000,389.613 388.000 C 389.399 388.000,389.343 388.315,389.487 388.700 M14.400 390.456 C 14.400 391.013,15.131 391.206,15.334 390.702 C 15.495 390.303,15.543 390.303,15.568 390.700 C 15.610 391.365,16.400 391.346,16.400 390.680 C 16.400 390.392,15.954 390.160,15.400 390.160 C 14.850 390.160,14.400 390.293,14.400 390.456 M382.465 390.636 C 381.905 391.270,382.096 392.400,382.764 392.400 C 382.978 392.400,383.264 392.220,383.400 392.000 C 383.536 391.780,383.345 391.600,382.975 391.600 C 382.404 391.600,382.382 391.503,382.832 390.961 C 383.314 390.380,383.385 390.387,383.612 391.035 C 383.786 391.530,383.951 391.603,384.155 391.273 C 384.857 390.137,383.394 389.585,382.465 390.636 M384.618 390.430 C 384.960 390.983,383.190 392.882,382.559 392.639 C 382.295 392.538,381.985 392.815,381.870 393.254 C 381.676 393.995,381.725 394.010,382.557 393.465 C 383.352 392.944,383.498 392.949,383.852 393.510 C 384.096 393.897,384.516 394.041,384.935 393.880 C 385.968 393.484,386.238 392.363,385.441 391.781 C 385.003 391.460,384.907 391.181,385.176 391.015 C 385.810 390.623,385.687 390.000,384.976 390.000 C 384.633 390.000,384.472 390.193,384.618 390.430 M14.572 391.780 C 13.955 392.238,13.889 392.498,14.243 393.077 C 14.866 394.094,15.871 394.188,16.360 393.274 C 16.995 392.087,15.660 390.972,14.572 391.780 M16.800 392.000 C 16.800 392.220,17.025 392.403,17.300 392.406 C 17.660 392.411,17.645 392.510,17.246 392.763 C 16.809 393.040,16.894 393.222,17.646 393.622 C 18.458 394.056,18.533 394.047,18.151 393.565 C 17.905 393.254,17.754 392.685,17.816 392.300 C 17.879 391.910,17.679 391.600,17.365 391.600 C 17.054 391.600,16.800 391.780,16.800 392.000 M16.000 392.576 C 16.000 392.893,15.804 393.274,15.565 393.422 C 15.000 393.771,14.229 393.000,14.578 392.435 C 14.971 391.800,16.000 391.903,16.000 392.576 M385.400 392.805 C 385.400 393.663,384.238 393.539,384.069 392.664 C 383.966 392.129,384.129 391.966,384.664 392.069 C 385.069 392.147,385.400 392.478,385.400 392.805 " stroke="none" fill="#7a4c1c" fill-rule="evenodd"></path><path id="path2" d="M288.500 57.476 C 288.885 57.576,289.515 57.576,289.900 57.476 C 290.285 57.375,289.970 57.293,289.200 57.293 C 288.430 57.293,288.115 57.375,288.500 57.476 M293.002 58.802 C 293.402 59.244,293.815 59.518,293.921 59.412 C 294.190 59.143,293.192 58.000,292.689 58.000 C 292.462 58.000,292.603 58.361,293.002 58.802 M294.564 68.200 C 294.563 71.940,294.623 73.524,294.697 71.720 C 294.771 69.915,294.772 66.855,294.698 64.920 C 294.625 62.984,294.564 64.460,294.564 68.200 M294.577 113.600 C 294.577 120.090,294.632 122.745,294.699 119.500 C 294.766 116.255,294.766 110.945,294.699 107.700 C 294.632 104.455,294.577 107.110,294.577 113.600 M108.093 137.200 C 108.093 137.970,108.175 138.285,108.276 137.900 C 108.376 137.515,108.376 136.885,108.276 136.500 C 108.175 136.115,108.093 136.430,108.093 137.200 M294.148 262.000 C 294.148 264.310,294.214 265.255,294.295 264.100 C 294.376 262.945,294.376 261.055,294.295 259.900 C 294.214 258.745,294.148 259.690,294.148 262.000 M127.100 287.082 C 127.595 287.178,128.405 287.178,128.900 287.082 C 129.395 286.987,128.990 286.909,128.000 286.909 C 127.010 286.909,126.605 286.987,127.100 287.082 M114.101 290.600 C 114.105 291.480,114.187 291.793,114.283 291.295 C 114.379 290.798,114.375 290.078,114.275 289.695 C 114.175 289.313,114.096 289.720,114.101 290.600 M274.175 321.300 L 273.000 322.600 274.300 321.425 C 275.015 320.779,275.600 320.194,275.600 320.125 C 275.600 319.816,275.270 320.088,274.175 321.300 M142.000 333.325 C 142.000 333.394,142.585 333.979,143.300 334.625 L 144.600 335.800 143.425 334.500 C 142.330 333.288,142.000 333.016,142.000 333.325 M186.700 348.289 C 187.415 348.378,188.585 348.378,189.300 348.289 C 190.015 348.201,189.430 348.128,188.000 348.128 C 186.570 348.128,185.985 348.201,186.700 348.289 M214.291 348.289 C 215.001 348.377,216.261 348.379,217.091 348.292 C 217.921 348.205,217.340 348.133,215.800 348.131 C 214.260 348.129,213.581 348.200,214.291 348.289 M196.700 349.098 C 198.515 349.172,201.485 349.172,203.300 349.098 C 205.115 349.023,203.630 348.963,200.000 348.963 C 196.370 348.963,194.885 349.023,196.700 349.098 M0.000 367.600 C 0.000 369.040,0.100 369.200,1.000 369.200 C 1.900 369.200,2.000 369.040,2.000 367.600 C 2.000 366.160,1.900 366.000,1.000 366.000 C 0.100 366.000,0.000 366.160,0.000 367.600 M398.000 367.600 C 398.000 369.040,398.100 369.200,399.000 369.200 C 399.900 369.200,400.000 369.040,400.000 367.600 C 400.000 366.160,399.900 366.000,399.000 366.000 C 398.100 366.000,398.000 366.160,398.000 367.600 M2.000 376.629 C 2.000 377.053,3.236 378.097,3.467 377.867 C 3.592 377.741,3.417 377.360,3.076 377.019 C 2.441 376.384,2.000 376.224,2.000 376.629 M396.860 377.042 C 396.131 377.866,396.600 378.257,397.381 377.476 C 397.721 377.136,398.000 376.754,398.000 376.629 C 398.000 376.209,397.406 376.424,396.860 377.042 M393.400 380.000 C 393.264 380.220,392.450 380.400,391.590 380.400 C 389.887 380.400,389.200 381.130,389.200 382.941 C 389.200 384.676,388.791 385.200,387.437 385.200 C 385.888 385.200,385.200 385.815,385.200 387.200 C 385.200 388.539,384.519 389.200,383.139 389.200 C 381.000 389.200,380.049 389.949,380.072 391.615 C 380.084 392.446,379.995 393.284,379.875 393.478 C 379.756 393.672,380.132 393.870,380.711 393.917 C 381.428 393.977,381.634 393.874,381.356 393.596 C 381.129 393.369,381.048 392.436,381.174 391.494 L 381.400 389.800 383.400 389.600 L 385.400 389.400 385.600 387.600 L 385.800 385.800 387.600 385.600 L 389.400 385.400 389.600 383.400 L 389.800 381.400 391.820 381.429 C 393.675 381.456,393.840 381.382,393.840 380.529 C 393.840 379.500,393.765 379.410,393.400 380.000 M6.369 380.076 C 6.051 381.362,6.137 381.423,8.247 381.412 C 10.603 381.399,11.054 380.622,8.737 380.567 C 7.969 380.549,7.129 380.404,6.871 380.244 C 6.612 380.084,6.386 380.008,6.369 380.076 M10.543 383.600 L 10.600 385.400 12.400 385.600 L 14.200 385.800 14.400 387.600 L 14.600 389.400 16.600 389.600 L 18.600 389.800 18.600 391.821 C 18.600 393.650,18.685 393.841,19.500 393.841 C 20.100 393.840,20.267 393.707,20.000 393.440 C 19.780 393.220,19.600 392.362,19.600 391.534 C 19.600 389.851,18.848 389.200,16.906 389.200 C 15.474 389.200,14.800 388.550,14.800 387.169 C 14.800 385.827,14.180 385.302,12.398 385.133 C 11.107 385.010,10.980 384.877,10.743 383.400 L 10.486 381.800 10.543 383.600 M9.075 385.859 C 9.557 385.964,10.031 386.401,10.129 386.831 C 10.267 387.438,10.295 387.411,10.253 386.706 C 10.214 386.040,9.935 385.783,9.200 385.734 C 8.367 385.680,8.346 385.701,9.075 385.859 M389.750 386.187 C 389.626 386.510,389.617 387.005,389.731 387.287 C 389.844 387.569,389.951 387.408,389.968 386.928 C 389.989 386.355,390.309 385.996,390.900 385.882 L 391.800 385.709 390.887 385.654 C 390.386 385.625,389.874 385.864,389.750 386.187 M13.075 389.859 C 13.557 389.964,14.031 390.401,14.129 390.831 C 14.267 391.438,14.295 391.411,14.253 390.706 C 14.214 390.040,13.935 389.783,13.200 389.734 C 12.367 389.680,12.346 389.701,13.075 389.859 M385.750 390.187 C 385.626 390.510,385.617 391.005,385.731 391.287 C 385.844 391.569,385.951 391.408,385.968 390.928 C 385.989 390.355,386.309 389.996,386.900 389.882 L 387.800 389.709 386.887 389.654 C 386.386 389.625,385.874 389.864,385.750 390.187 M23.022 393.992 C 22.264 394.258,21.808 396.000,22.495 396.000 C 22.969 396.000,24.000 397.039,24.000 397.516 C 24.000 397.893,25.662 397.856,26.293 397.466 C 26.775 397.168,26.897 394.507,26.442 394.226 C 25.821 393.842,23.837 393.707,23.022 393.992 M373.311 394.100 C 372.643 394.964,372.419 395.965,372.837 396.223 C 373.098 396.384,373.075 396.669,372.770 397.036 C 372.513 397.346,372.459 397.615,372.651 397.634 C 375.418 397.907,375.839 397.823,376.870 396.792 C 378.007 395.655,378.122 394.576,377.172 393.974 C 376.327 393.440,373.757 393.523,373.311 394.100 M365.902 397.032 C 365.809 397.125,290.507 397.220,198.566 397.244 C 99.371 397.269,31.075 397.434,30.600 397.650 C 30.038 397.905,30.315 397.949,31.531 397.797 C 34.702 397.401,37.200 397.954,37.200 399.052 L 37.200 400.000 198.400 400.000 L 359.600 400.000 359.600 399.036 C 359.600 397.946,364.403 397.234,368.332 397.741 C 369.421 397.882,369.950 397.842,369.600 397.645 C 368.886 397.245,366.144 396.789,365.902 397.032 " stroke="none" fill="#948c7c" fill-rule="evenodd"></path><path id="path3" d="M183.400 53.582 C 181.860 53.980,179.338 54.763,177.795 55.322 C 176.253 55.881,173.823 56.458,172.395 56.603 C 169.039 56.945,167.439 57.450,166.075 58.599 C 165.010 59.494,162.154 60.476,159.174 60.971 C 158.281 61.120,157.248 61.726,156.405 62.595 C 155.539 63.488,154.174 64.276,152.562 64.813 C 150.918 65.360,149.836 65.990,149.400 66.656 C 149.036 67.212,147.994 68.000,147.085 68.407 C 146.176 68.814,144.664 69.834,143.724 70.673 C 141.609 72.564,136.487 77.581,135.372 78.855 C 134.917 79.375,134.017 80.283,133.372 80.873 C 130.927 83.112,128.864 85.445,128.249 86.668 C 127.899 87.366,127.091 88.308,126.454 88.761 C 125.699 89.299,125.057 90.318,124.608 91.692 C 124.217 92.886,123.254 94.520,122.385 95.463 C 121.502 96.420,120.655 97.865,120.390 98.864 C 120.137 99.819,119.314 101.397,118.561 102.371 C 117.808 103.345,116.833 105.345,116.395 106.816 C 115.957 108.287,115.171 110.120,114.648 110.891 C 113.475 112.620,112.990 114.146,112.389 118.000 C 112.132 119.650,111.320 122.350,110.585 124.000 C 109.093 127.347,108.408 130.809,108.403 135.016 C 108.401 136.565,108.130 138.869,107.800 140.135 C 107.453 141.468,107.200 144.191,107.200 146.595 C 107.200 148.880,106.944 151.887,106.630 153.275 C 105.951 156.283,106.040 172.943,106.746 175.163 C 106.985 175.913,107.366 178.793,107.593 181.563 C 108.169 188.606,108.735 191.827,109.878 194.565 C 110.421 195.865,111.291 198.985,111.812 201.498 C 112.481 204.723,113.108 206.616,113.944 207.933 C 114.595 208.960,115.504 211.081,115.965 212.646 C 116.425 214.211,117.344 216.174,118.006 217.008 C 118.669 217.842,119.524 219.416,119.906 220.506 C 120.288 221.596,121.180 223.105,121.888 223.860 C 122.597 224.615,123.518 225.990,123.935 226.916 C 124.352 227.842,125.573 229.623,126.647 230.872 C 127.721 232.122,129.410 234.162,130.400 235.406 C 132.815 238.440,133.847 239.475,136.574 241.600 C 137.845 242.590,139.901 244.279,141.142 245.353 C 142.384 246.427,144.158 247.648,145.084 248.065 C 146.010 248.482,147.385 249.403,148.140 250.112 C 148.895 250.820,150.423 251.719,151.537 252.110 C 152.650 252.500,154.065 253.238,154.681 253.750 C 156.257 255.061,157.046 255.421,159.990 256.170 C 161.415 256.533,163.305 257.254,164.190 257.773 C 166.100 258.892,167.978 259.431,171.895 259.986 C 173.488 260.211,177.432 261.037,180.659 261.821 L 186.528 263.247 200.364 263.120 L 214.200 262.994 217.086 261.926 C 218.674 261.339,221.464 260.565,223.286 260.208 C 227.314 259.417,228.528 258.979,230.600 257.568 C 231.480 256.969,233.134 256.180,234.275 255.816 C 235.416 255.451,237.036 254.605,237.875 253.936 C 238.714 253.267,240.242 252.291,241.272 251.767 C 242.302 251.243,243.382 250.476,243.672 250.063 C 243.962 249.649,244.920 248.826,245.800 248.234 C 248.824 246.200,256.400 239.147,256.400 238.366 C 256.400 238.205,257.210 237.240,258.200 236.221 C 259.190 235.203,260.000 234.107,260.000 233.786 C 260.000 233.465,260.670 232.461,261.489 231.554 C 262.308 230.647,263.433 228.821,263.989 227.494 C 265.657 223.515,267.642 223.587,268.428 227.657 C 268.898 230.086,268.884 254.853,268.411 259.982 C 268.196 262.302,267.843 266.554,267.626 269.430 C 267.306 273.678,267.010 275.219,266.051 277.630 C 265.402 279.264,264.583 282.437,264.230 284.681 C 263.471 289.516,263.381 289.787,261.943 291.600 C 261.332 292.370,260.460 294.207,260.006 295.682 C 259.551 297.157,258.758 298.867,258.243 299.482 C 257.729 300.097,256.853 301.500,256.297 302.600 C 255.741 303.700,254.901 304.948,254.431 305.373 C 253.960 305.799,253.050 307.064,252.408 308.186 C 251.102 310.468,246.025 315.166,243.464 316.463 C 242.549 316.926,241.206 317.911,240.481 318.652 C 239.755 319.394,238.908 320.000,238.598 320.000 C 238.288 320.000,236.452 320.835,234.517 321.856 C 231.568 323.412,230.266 323.835,226.449 324.475 C 223.834 324.913,221.112 325.636,220.049 326.174 C 214.186 329.141,189.509 328.793,180.984 325.624 C 179.876 325.212,178.076 324.756,176.984 324.610 C 172.310 323.989,170.518 323.471,168.600 322.187 C 167.500 321.451,165.559 320.553,164.287 320.192 C 162.810 319.773,161.320 318.969,160.163 317.968 C 159.167 317.106,158.160 316.400,157.926 316.400 C 157.540 316.400,155.576 314.628,152.383 311.400 C 151.731 310.740,150.882 309.886,150.498 309.502 C 145.133 304.136,144.716 303.609,143.527 300.677 C 142.885 299.095,141.908 297.145,141.356 296.344 C 140.698 295.389,140.221 293.943,139.970 292.144 C 139.364 287.794,138.912 287.418,134.158 287.312 C 131.981 287.263,127.356 287.033,123.880 286.801 C 116.995 286.340,115.892 286.560,114.793 288.613 C 113.683 290.687,116.073 303.841,118.007 306.299 C 118.412 306.815,119.214 308.468,119.789 309.972 C 120.364 311.476,121.205 313.043,121.659 313.453 C 122.112 313.863,122.950 315.009,123.520 316.000 C 126.317 320.857,136.076 330.379,140.336 332.409 C 141.581 333.002,142.960 333.899,143.400 334.401 C 143.840 334.904,145.177 335.752,146.372 336.284 C 147.566 336.817,149.276 337.770,150.172 338.402 C 151.067 339.033,152.880 339.848,154.200 340.212 C 155.520 340.577,157.860 341.480,159.400 342.220 C 161.085 343.030,163.872 343.893,166.400 344.389 C 168.710 344.842,172.130 345.735,174.000 346.374 C 183.464 349.608,224.624 349.200,231.183 345.809 C 231.813 345.483,234.590 344.767,237.355 344.217 C 240.784 343.534,243.054 342.841,244.492 342.038 C 245.651 341.391,247.622 340.568,248.870 340.211 C 250.119 339.853,251.739 339.124,252.470 338.590 C 253.202 338.056,255.056 336.979,256.590 336.198 C 258.125 335.416,259.835 334.364,260.390 333.861 C 260.946 333.358,261.940 332.613,262.600 332.206 C 264.923 330.775,274.420 321.383,275.906 319.048 C 276.483 318.142,277.366 316.943,277.870 316.386 C 278.374 315.828,279.347 314.212,280.034 312.795 C 280.720 311.378,281.697 309.725,282.204 309.122 C 282.711 308.520,283.506 306.884,283.971 305.488 C 284.436 304.091,285.421 302.009,286.161 300.861 C 287.155 299.318,287.688 297.810,288.202 295.086 C 288.585 293.059,289.417 290.079,290.051 288.465 C 291.240 285.438,291.656 283.220,292.391 276.000 C 292.626 273.690,293.024 270.810,293.276 269.600 C 293.528 268.390,293.847 264.250,293.985 260.400 C 294.131 256.349,294.446 252.880,294.734 252.166 C 295.127 251.194,295.177 241.274,294.972 205.366 C 294.829 180.305,294.683 140.720,294.649 117.400 C 294.614 94.080,294.544 71.697,294.493 67.660 L 294.400 60.320 293.015 58.935 L 291.629 57.549 281.715 57.675 C 267.985 57.848,268.949 56.471,269.315 75.395 C 269.596 89.967,269.629 89.685,267.555 90.620 C 265.593 91.505,264.390 90.619,263.288 87.478 C 262.883 86.325,262.143 85.193,261.488 84.724 C 260.876 84.286,259.856 82.909,259.222 81.664 C 257.865 78.997,248.376 69.395,245.800 68.082 C 244.920 67.634,243.967 66.882,243.683 66.412 C 243.399 65.942,242.389 65.224,241.439 64.817 C 240.489 64.410,239.192 63.539,238.556 62.882 C 237.820 62.122,236.382 61.363,234.600 60.795 C 233.004 60.287,231.283 59.414,230.597 58.767 C 229.388 57.625,228.841 57.459,222.241 56.220 C 220.219 55.841,218.533 55.247,217.555 54.569 C 214.790 52.653,189.794 51.930,183.400 53.582 M190.545 54.600 C 190.418 54.930,190.173 55.200,190.000 55.200 C 189.827 55.200,189.582 54.930,189.455 54.600 C 189.300 54.194,189.476 54.000,190.000 54.000 C 190.524 54.000,190.700 54.194,190.545 54.600 M205.754 56.865 C 207.497 58.769,209.250 58.993,218.000 58.429 C 221.630 58.195,224.913 58.003,225.295 58.002 C 225.713 58.001,226.225 58.563,226.580 59.414 C 227.313 61.167,229.116 62.000,232.180 62.000 C 234.180 62.000,234.407 62.090,234.628 62.971 C 234.978 64.364,235.897 65.041,238.435 65.774 C 240.588 66.395,242.400 67.606,242.400 68.424 C 242.400 68.856,243.596 69.415,245.300 69.780 C 246.061 69.943,246.400 70.265,246.400 70.826 C 246.400 71.881,248.131 73.600,249.194 73.600 C 249.651 73.600,250.126 73.915,250.250 74.300 C 251.042 76.763,251.363 77.219,252.516 77.518 C 253.186 77.692,253.855 78.096,254.002 78.417 C 255.213 81.047,255.517 81.429,256.665 81.771 C 257.731 82.087,257.945 82.373,258.126 83.726 C 258.282 84.890,258.808 85.799,260.108 87.155 C 261.081 88.170,262.103 89.576,262.379 90.281 C 263.452 93.019,269.155 93.977,271.230 91.768 L 272.200 90.735 272.225 77.068 C 272.256 60.303,272.192 60.556,276.200 61.220 C 279.138 61.708,283.797 61.639,287.101 61.059 C 291.493 60.288,291.425 60.148,291.854 70.800 C 292.297 81.797,292.293 102.638,291.844 133.221 L 291.489 157.442 292.744 161.483 L 294.000 165.525 294.000 207.977 C 294.000 247.734,293.956 250.496,293.300 251.494 C 292.724 252.370,292.555 253.879,292.347 259.980 C 291.840 274.854,290.921 282.978,289.426 285.790 C 288.454 287.617,288.103 289.042,287.175 294.909 C 286.788 297.358,286.407 298.377,285.380 299.709 C 284.657 300.646,283.704 302.659,283.243 304.225 C 282.749 305.901,282.012 307.425,281.431 307.971 C 280.892 308.477,279.948 310.086,279.332 311.546 C 278.717 313.006,277.783 314.545,277.258 314.967 C 276.733 315.389,276.049 316.343,275.738 317.087 C 274.644 319.705,263.613 330.674,260.945 331.796 C 260.262 332.083,259.420 332.722,259.074 333.215 C 258.729 333.708,257.232 334.624,255.748 335.250 C 254.264 335.877,252.498 336.920,251.825 337.570 C 250.938 338.426,249.809 338.930,247.731 339.401 C 246.153 339.758,244.083 340.564,243.131 341.192 C 242.167 341.828,240.336 342.533,239.000 342.782 C 230.997 344.278,228.683 344.800,227.543 345.368 C 221.788 348.240,181.729 348.243,175.798 345.373 C 174.492 344.741,172.198 344.188,169.198 343.781 C 165.411 343.269,164.036 342.882,161.400 341.589 C 159.640 340.725,157.210 339.813,156.000 339.561 C 153.698 339.081,152.707 338.621,150.419 336.968 C 149.660 336.420,148.249 335.772,147.284 335.529 C 146.196 335.255,145.014 334.557,144.176 333.694 C 143.431 332.927,141.883 331.865,140.734 331.333 C 138.485 330.291,136.194 328.427,131.871 324.124 C 128.284 320.553,125.958 317.771,124.651 315.491 C 124.049 314.442,123.033 313.048,122.394 312.394 C 121.755 311.740,121.027 310.442,120.776 309.509 C 120.261 307.599,118.613 304.179,118.035 303.821 C 117.468 303.471,116.852 299.977,116.443 294.800 C 115.931 288.311,116.109 288.132,122.476 288.754 C 124.988 288.999,129.579 289.200,132.678 289.200 C 139.122 289.200,138.799 289.003,138.802 292.933 C 138.805 296.351,139.372 298.064,140.984 299.531 C 141.820 300.292,142.544 301.448,142.816 302.459 C 143.289 304.215,147.543 309.401,148.851 309.816 C 149.231 309.937,149.908 310.656,150.355 311.414 C 150.803 312.172,151.734 313.136,152.424 313.556 C 153.115 313.976,154.013 314.868,154.421 315.538 C 154.917 316.353,155.710 316.921,156.819 317.253 C 157.913 317.581,158.596 318.064,158.828 318.675 C 159.294 319.899,161.358 321.115,163.522 321.439 C 164.815 321.633,165.661 322.097,166.774 323.221 C 168.350 324.812,168.357 324.815,174.362 325.573 C 177.033 325.911,177.845 326.171,178.314 326.841 C 179.915 329.127,186.450 329.757,205.922 329.502 C 221.065 329.303,222.697 329.075,224.397 326.913 C 225.092 326.030,225.638 325.858,228.696 325.561 C 234.370 325.010,234.671 324.913,236.057 323.189 C 236.954 322.073,237.743 321.537,238.762 321.353 C 240.665 321.009,241.983 320.310,243.200 318.998 C 243.750 318.406,245.049 317.488,246.087 316.960 C 247.125 316.432,248.225 315.521,248.531 314.937 C 248.837 314.353,249.774 313.408,250.613 312.837 C 251.451 312.267,252.526 311.080,253.001 310.200 C 253.475 309.320,254.530 307.906,255.345 307.058 C 256.234 306.132,257.019 304.792,257.310 303.703 C 257.598 302.626,258.170 301.645,258.718 301.286 C 259.933 300.490,260.601 299.123,261.203 296.200 C 261.597 294.289,261.979 293.556,263.078 292.600 C 264.411 291.441,264.479 291.243,265.050 286.800 C 265.512 283.211,265.863 281.863,266.650 280.665 C 268.073 278.497,268.716 274.785,268.947 267.400 C 269.057 263.880,269.345 259.740,269.588 258.200 C 270.201 254.310,269.981 224.220,269.335 223.574 C 267.347 221.588,264.322 223.002,263.024 226.525 C 262.634 227.584,261.630 229.241,260.793 230.208 C 259.956 231.175,259.147 232.531,258.996 233.220 C 258.812 234.056,258.272 234.738,257.378 235.266 C 256.640 235.702,255.923 236.413,255.785 236.848 C 255.483 237.798,249.888 243.600,249.273 243.600 C 249.035 243.600,248.349 244.244,247.749 245.032 C 247.148 245.819,245.917 246.811,245.012 247.236 C 244.107 247.662,243.049 248.548,242.661 249.205 C 242.272 249.862,241.722 250.400,241.437 250.400 C 240.506 250.400,237.024 252.442,235.923 253.634 C 235.330 254.275,234.598 254.800,234.295 254.800 C 232.836 254.800,229.443 256.163,228.213 257.243 C 226.973 258.331,226.249 258.546,220.918 259.410 C 217.663 259.937,213.937 260.735,212.637 261.184 C 208.829 262.499,189.925 262.411,185.370 261.057 C 183.627 260.539,179.322 259.788,175.803 259.388 C 170.026 258.733,169.158 258.530,166.838 257.299 C 165.425 256.550,162.764 255.608,160.924 255.206 C 158.273 254.626,157.271 254.196,156.090 253.130 C 155.186 252.314,153.617 251.488,152.100 251.029 C 150.725 250.614,149.600 250.146,149.600 249.991 C 149.600 249.350,147.458 247.632,146.356 247.390 C 145.704 247.247,144.592 246.552,143.885 245.846 C 143.178 245.140,141.790 243.944,140.800 243.189 C 139.810 242.433,138.370 241.228,137.600 240.510 C 136.830 239.792,135.625 239.013,134.923 238.779 C 134.007 238.473,133.524 237.982,133.212 237.035 C 132.973 236.311,132.310 235.286,131.739 234.759 C 131.169 234.231,130.027 232.900,129.202 231.800 C 128.377 230.700,127.129 229.206,126.428 228.480 C 125.727 227.753,124.816 226.370,124.402 225.405 C 123.989 224.441,123.191 223.350,122.629 222.982 C 122.008 222.575,121.433 221.663,121.162 220.656 C 120.566 218.443,119.737 216.850,118.424 215.400 C 117.677 214.574,117.120 213.240,116.640 211.119 C 116.217 209.256,115.502 207.432,114.829 206.504 C 113.497 204.665,112.948 203.007,112.610 199.800 C 112.290 196.769,111.406 193.595,110.411 191.908 C 109.248 189.935,106.990 167.767,107.750 165.785 C 108.180 164.666,109.147 149.276,109.425 139.147 C 109.714 128.595,109.660 128.925,111.284 127.892 C 112.620 127.042,113.031 125.565,113.516 119.876 C 113.877 115.646,113.917 115.518,115.336 114.066 C 116.821 112.545,117.600 110.093,117.600 106.939 C 117.600 105.802,117.811 105.487,118.929 104.953 C 120.681 104.118,121.223 103.165,121.488 100.451 C 121.730 97.983,122.139 97.200,123.187 97.200 C 124.214 97.200,125.083 96.027,125.610 93.931 C 125.927 92.670,126.587 91.564,127.640 90.531 C 128.706 89.486,129.282 88.514,129.457 87.469 C 129.653 86.296,129.956 85.851,130.756 85.569 C 132.542 84.938,132.932 84.589,133.400 83.200 C 133.734 82.209,134.209 81.734,135.200 81.400 C 136.590 80.932,136.938 80.543,137.571 78.751 C 137.806 78.086,138.355 77.598,139.069 77.419 C 140.608 77.032,141.103 76.552,141.412 75.145 C 141.557 74.486,141.973 73.851,142.338 73.735 C 144.662 72.997,145.283 72.575,145.773 71.403 C 146.221 70.332,146.576 70.082,147.908 69.903 C 150.270 69.586,151.683 68.770,152.767 67.095 C 153.610 65.791,153.933 65.600,155.287 65.600 C 157.166 65.600,158.776 64.819,160.072 63.279 C 160.916 62.277,161.405 62.096,163.904 61.864 C 167.588 61.521,168.675 61.003,169.292 59.296 L 169.791 57.917 181.110 58.058 C 188.482 58.151,192.528 58.058,192.714 57.794 C 194.262 55.592,195.612 55.129,200.077 55.266 L 204.413 55.400 205.754 56.865 M186.494 71.578 C 185.390 71.757,184.330 72.293,183.494 73.094 C 182.400 74.140,181.705 74.401,179.000 74.782 C 173.864 75.506,173.475 75.636,172.174 77.057 C 171.270 78.043,170.295 78.571,168.568 79.011 C 166.861 79.444,165.875 79.974,165.036 80.906 C 164.396 81.618,162.964 82.650,161.854 83.200 C 160.687 83.778,159.575 84.682,159.217 85.343 C 158.876 85.972,157.969 86.783,157.201 87.146 C 156.364 87.541,155.548 88.349,155.164 89.164 C 154.785 89.965,153.965 90.785,153.164 91.164 C 152.363 91.542,151.542 92.363,151.164 93.162 C 150.799 93.936,149.923 94.827,149.125 95.237 C 148.107 95.759,147.538 96.446,147.037 97.758 C 146.649 98.773,146.014 99.669,145.585 99.805 C 144.363 100.193,143.284 101.880,142.760 104.222 C 142.361 106.008,142.040 106.533,140.964 107.168 C 139.624 107.959,139.086 109.163,138.538 112.600 C 138.357 113.732,137.847 114.609,136.795 115.600 C 135.224 117.080,135.153 117.326,134.565 123.345 C 134.348 125.566,134.081 126.336,133.163 127.381 C 131.340 129.457,131.133 130.530,130.770 139.800 C 130.303 151.729,130.313 151.650,129.001 152.962 C 127.657 154.307,127.745 160.624,129.142 162.992 C 130.286 164.931,130.398 165.704,130.998 175.834 C 131.605 186.062,131.753 186.861,133.370 188.605 C 133.936 189.217,134.400 189.878,134.400 190.074 C 134.400 194.879,135.561 199.523,137.175 201.175 C 137.849 201.864,138.400 202.839,138.400 203.341 C 138.400 205.409,139.599 208.252,140.991 209.485 C 141.766 210.171,142.400 211.092,142.400 211.533 C 142.400 213.164,143.904 215.864,145.258 216.664 C 146.125 217.176,146.742 217.940,147.000 218.820 C 147.245 219.655,147.929 220.536,148.766 221.096 C 149.518 221.599,150.446 222.709,150.829 223.565 C 151.356 224.743,151.827 225.186,152.771 225.394 C 153.697 225.597,154.167 226.026,154.600 227.063 C 155.028 228.085,155.612 228.626,156.787 229.088 C 157.794 229.483,158.684 230.216,159.181 231.058 C 159.709 231.952,160.675 232.714,162.086 233.349 C 163.249 233.872,164.814 234.946,165.564 235.735 C 166.596 236.821,167.375 237.236,168.764 237.440 C 170.181 237.647,170.919 238.051,172.000 239.210 C 173.676 241.006,175.527 241.595,179.509 241.598 C 182.329 241.600,182.470 241.647,184.109 243.151 C 186.342 245.200,189.276 245.602,201.964 245.596 C 213.961 245.590,215.945 245.164,216.868 242.397 C 217.003 241.992,218.185 241.776,221.226 241.600 C 225.820 241.335,226.413 241.123,228.263 239.090 C 229.204 238.057,229.979 237.634,231.296 237.436 C 232.623 237.238,233.440 236.788,234.559 235.641 C 235.381 234.800,236.925 233.703,237.992 233.204 C 239.246 232.616,240.177 231.838,240.630 230.996 C 241.039 230.237,241.949 229.423,242.820 229.039 C 243.774 228.618,244.493 227.940,244.818 227.156 C 245.097 226.482,246.015 225.495,246.858 224.963 C 247.742 224.405,248.639 223.402,248.976 222.595 C 249.298 221.825,249.975 221.037,250.481 220.843 C 251.602 220.415,252.612 219.306,252.979 218.102 C 253.130 217.608,254.059 216.258,255.045 215.103 C 256.101 213.867,257.015 212.300,257.269 211.294 C 257.544 210.200,258.097 209.301,258.804 208.797 C 260.060 207.903,260.966 205.886,261.376 203.071 C 261.548 201.892,261.970 200.882,262.461 200.471 C 263.859 199.303,264.739 197.034,265.219 193.361 C 265.574 190.640,265.950 189.393,266.814 188.073 C 268.349 185.729,268.692 183.780,269.009 175.600 C 269.331 167.315,269.645 165.589,271.218 163.450 C 273.088 160.906,273.021 154.546,271.103 152.669 L 269.807 151.400 269.544 142.400 C 269.197 130.535,268.829 128.506,266.757 127.055 C 266.059 126.566,265.813 125.716,265.357 122.214 C 264.776 117.757,264.153 116.033,262.774 115.067 C 262.187 114.656,261.772 113.623,261.358 111.543 C 260.848 108.982,260.571 108.418,259.226 107.200 C 258.091 106.172,257.610 105.366,257.416 104.166 C 257.077 102.068,255.863 100.080,254.635 99.613 C 253.913 99.339,253.506 98.680,253.016 96.996 C 252.477 95.141,252.158 94.674,251.206 94.342 C 250.416 94.067,249.972 93.582,249.802 92.811 C 249.508 91.472,248.599 90.602,247.131 90.254 C 246.358 90.070,245.931 89.604,245.589 88.568 C 245.217 87.439,244.745 86.977,243.358 86.382 C 242.391 85.968,241.600 85.365,241.600 85.043 C 241.600 84.212,239.670 82.800,238.533 82.800 C 237.865 82.800,237.328 82.385,236.768 81.436 C 235.928 80.011,234.265 79.137,231.405 78.618 C 230.300 78.417,229.380 77.865,228.405 76.819 C 227.265 75.594,226.623 75.259,225.000 75.044 C 220.536 74.452,219.971 74.290,218.609 73.207 C 217.656 72.450,216.363 71.936,214.663 71.640 C 211.906 71.160,189.367 71.110,186.494 71.578 M213.396 73.404 C 214.714 73.945,217.677 74.770,219.981 75.237 C 225.040 76.261,225.629 76.473,227.521 77.954 C 228.335 78.590,229.945 79.416,231.101 79.788 C 232.257 80.160,233.952 81.091,234.868 81.857 C 235.784 82.622,237.089 83.532,237.767 83.878 C 239.049 84.532,241.801 86.761,243.702 88.685 C 245.090 90.090,245.910 90.910,247.315 92.298 C 249.561 94.517,251.523 97.048,252.510 99.000 C 253.066 100.100,253.987 101.435,254.556 101.966 C 255.126 102.497,255.948 103.883,256.382 105.045 C 256.817 106.207,257.784 107.958,258.531 108.937 C 259.436 110.123,260.189 111.833,260.785 114.059 C 261.277 115.896,261.910 117.670,262.192 118.000 C 263.274 119.269,263.972 121.190,264.599 124.630 C 264.956 126.593,265.872 130.030,266.633 132.266 C 269.398 140.388,269.851 162.227,267.606 179.159 C 267.361 181.007,266.734 183.530,266.214 184.767 C 265.694 186.003,264.898 188.968,264.445 191.355 C 263.827 194.616,263.355 196.045,262.548 197.103 C 261.958 197.877,261.056 199.949,260.545 201.707 C 260.034 203.465,259.157 205.505,258.597 206.240 C 258.036 206.975,257.048 208.755,256.402 210.196 C 255.756 211.636,254.948 212.922,254.608 213.052 C 254.267 213.183,253.368 214.395,252.609 215.745 C 250.299 219.853,238.496 231.347,235.200 232.697 C 234.430 233.013,233.170 233.877,232.400 234.618 C 231.490 235.494,230.072 236.252,228.348 236.784 C 226.889 237.234,225.462 237.884,225.177 238.228 C 224.228 239.372,222.638 239.912,217.798 240.736 C 215.159 241.185,212.100 241.965,211.000 242.468 C 207.717 243.972,194.847 244.105,191.880 242.666 C 190.426 241.961,188.294 241.459,184.800 240.999 C 178.429 240.160,176.989 239.778,175.010 238.400 C 174.125 237.783,172.410 236.970,171.200 236.592 C 169.982 236.211,168.375 235.321,167.600 234.598 C 166.830 233.879,165.300 232.901,164.200 232.426 C 163.100 231.950,161.570 230.959,160.800 230.224 C 160.030 229.489,158.818 228.595,158.107 228.237 C 157.396 227.880,156.409 227.038,155.913 226.368 C 155.417 225.697,154.438 224.795,153.738 224.362 C 153.037 223.928,152.097 222.952,151.649 222.192 C 151.200 221.433,150.284 220.223,149.613 219.505 C 147.496 217.239,144.307 212.677,143.379 210.584 C 142.887 209.475,142.184 208.318,141.816 208.013 C 140.892 207.246,140.247 205.845,139.416 202.800 C 139.026 201.370,138.363 199.715,137.943 199.123 C 136.665 197.323,136.059 195.475,135.634 192.082 C 135.410 190.300,134.749 187.707,134.163 186.321 C 133.001 183.568,132.020 177.741,132.008 173.514 C 132.003 172.036,131.712 168.796,131.360 166.314 C 130.106 157.481,131.479 136.826,133.661 131.678 C 134.062 130.731,134.838 127.709,135.384 124.963 C 136.110 121.315,136.746 119.300,137.744 117.485 C 138.495 116.118,139.329 114.052,139.597 112.893 C 139.904 111.562,140.620 110.136,141.541 109.019 C 142.344 108.047,143.308 106.381,143.684 105.316 C 144.061 104.252,144.971 102.665,145.708 101.790 C 146.444 100.916,147.440 99.551,147.920 98.758 C 148.400 97.965,151.000 95.116,153.697 92.426 C 160.981 85.161,161.652 84.557,163.447 83.661 C 164.352 83.208,165.651 82.369,166.334 81.794 C 167.016 81.220,168.653 80.328,169.972 79.811 C 171.291 79.294,173.159 78.304,174.124 77.612 C 175.476 76.640,176.694 76.211,179.439 75.738 C 181.398 75.401,184.032 74.690,185.294 74.160 C 190.259 72.072,208.933 71.569,213.396 73.404 M6.602 381.597 C 6.484 381.788,6.589 382.070,6.836 382.222 C 7.162 382.424,7.152 382.582,6.800 382.800 C 6.067 383.253,6.716 384.779,7.863 385.302 C 8.612 385.643,8.929 385.639,9.147 385.286 C 9.579 384.586,10.629 386.000,10.475 387.075 C 10.308 388.249,11.819 389.728,12.960 389.510 C 13.445 389.417,14.056 389.569,14.316 389.848 C 14.577 390.128,15.153 390.286,15.595 390.201 C 16.101 390.103,16.400 390.260,16.400 390.623 C 16.400 391.331,15.742 391.386,15.465 390.700 C 15.310 390.315,15.256 390.321,15.232 390.724 C 15.214 391.012,15.020 391.136,14.800 391.000 C 14.580 390.864,14.400 390.958,14.400 391.210 C 14.400 391.461,14.625 391.585,14.900 391.486 C 15.603 391.231,16.790 392.361,16.530 393.038 C 16.412 393.347,16.524 393.600,16.781 393.600 C 17.037 393.600,17.145 393.435,17.021 393.234 C 16.897 393.033,17.021 392.777,17.298 392.666 C 17.697 392.505,17.697 392.457,17.300 392.432 C 16.617 392.388,16.663 391.600,17.348 391.600 C 17.658 391.600,17.875 391.976,17.848 392.465 C 17.822 392.940,18.036 393.409,18.324 393.506 C 18.718 393.639,18.817 393.203,18.724 391.741 L 18.600 389.800 16.600 389.600 L 14.600 389.400 14.400 387.600 L 14.200 385.800 12.400 385.600 L 10.600 385.400 10.400 383.400 L 10.200 381.400 8.509 381.324 C 7.578 381.283,6.720 381.405,6.602 381.597 M389.800 381.704 C 389.705 381.977,389.577 382.920,389.514 383.800 C 389.402 385.379,389.376 385.403,387.600 385.600 L 385.800 385.800 385.600 387.600 L 385.400 389.400 383.400 389.600 L 381.400 389.800 381.172 391.506 C 381.047 392.444,381.032 393.299,381.139 393.406 C 381.531 393.798,382.000 393.584,382.000 393.013 C 382.000 392.656,382.235 392.515,382.598 392.654 C 382.926 392.781,383.096 393.045,382.974 393.242 C 382.852 393.439,382.963 393.600,383.219 393.600 C 383.476 393.600,383.584 393.336,383.460 393.013 C 383.336 392.690,383.407 392.319,383.617 392.189 C 383.828 392.059,384.000 392.248,384.000 392.610 C 384.000 393.334,384.857 393.230,385.108 392.475 C 385.195 392.214,384.971 392.000,384.610 392.000 C 384.248 392.000,384.059 391.828,384.189 391.617 C 384.319 391.407,384.690 391.336,385.013 391.460 C 385.336 391.584,385.600 391.476,385.600 391.219 C 385.600 390.963,385.439 390.852,385.242 390.974 C 385.045 391.096,384.781 390.926,384.654 390.598 C 384.499 390.192,384.678 390.000,385.213 390.000 C 385.646 390.000,386.000 389.845,386.000 389.655 C 386.000 389.466,386.432 389.394,386.961 389.495 C 388.217 389.735,389.744 388.264,389.510 387.040 C 389.417 386.555,389.569 385.944,389.848 385.684 C 390.128 385.423,390.286 384.847,390.201 384.403 C 390.068 383.714,390.159 383.657,390.823 384.012 C 391.742 384.504,391.863 384.876,390.995 384.543 C 390.563 384.377,390.461 384.494,390.638 384.955 C 390.973 385.828,391.834 385.766,392.800 384.800 C 393.766 383.834,393.828 382.973,392.955 382.638 C 392.494 382.461,392.377 382.563,392.543 382.995 C 392.870 383.848,392.507 383.748,392.029 382.853 C 391.709 382.256,391.766 382.116,392.314 382.153 C 392.692 382.179,393.048 382.020,393.106 381.800 C 393.264 381.201,390.007 381.106,389.800 381.704 M384.216 390.425 C 384.490 390.869,383.335 392.400,382.725 392.400 C 382.090 392.400,381.920 391.252,382.465 390.636 C 383.097 389.921,383.848 389.831,384.216 390.425 M382.800 391.000 C 382.392 391.491,382.420 391.600,382.951 391.600 C 383.308 391.600,383.600 391.330,383.600 391.000 C 383.600 390.670,383.532 390.400,383.449 390.400 C 383.366 390.400,383.074 390.670,382.800 391.000 M14.892 392.475 C 15.139 393.217,16.000 393.340,16.000 392.633 C 16.000 392.285,15.715 392.000,15.367 392.000 C 15.018 392.000,14.805 392.214,14.892 392.475 M31.100 397.887 C 30.247 398.016,30.000 398.272,30.000 399.027 C 30.000 399.986,30.053 400.000,33.600 400.000 C 37.118 400.000,37.200 399.978,37.200 399.054 C 37.200 397.826,34.681 397.344,31.100 397.887 M361.300 397.893 C 359.806 398.027,359.600 398.164,359.600 399.023 L 359.600 400.000 364.800 400.000 L 370.000 400.000 370.000 399.047 C 370.000 397.641,367.612 397.324,361.300 397.893 " stroke="none" fill="#948470" fill-rule="evenodd"></path><path id="path4" d="M193.600 51.067 C 183.128 51.311,176.920 52.243,175.161 53.836 C 174.793 54.168,172.572 54.780,170.226 55.195 C 167.755 55.633,165.420 56.294,164.680 56.766 C 162.620 58.080,161.153 58.722,158.631 59.413 C 157.083 59.837,155.881 60.471,155.160 61.243 C 154.543 61.903,153.032 62.776,151.732 63.223 C 150.342 63.702,148.761 64.638,147.803 65.550 C 146.921 66.389,145.609 67.308,144.886 67.592 C 144.164 67.876,143.264 68.494,142.886 68.965 C 142.509 69.436,141.587 70.254,140.839 70.782 C 138.947 72.116,135.263 75.917,134.578 77.242 C 134.265 77.848,133.683 78.447,133.285 78.573 C 132.368 78.864,127.936 83.790,127.051 85.502 C 126.684 86.212,125.910 87.102,125.332 87.481 C 124.754 87.860,123.875 89.087,123.380 90.208 C 122.884 91.328,122.036 92.775,121.496 93.423 C 120.305 94.848,119.200 96.940,119.200 97.766 C 119.200 98.099,118.661 98.986,118.003 99.735 C 116.645 101.282,115.222 104.188,115.209 105.441 C 115.204 105.903,114.758 106.893,114.217 107.641 C 112.470 110.056,112.125 110.936,111.409 114.800 C 111.019 116.904,110.280 119.345,109.754 120.269 C 108.517 122.439,107.810 125.671,107.013 132.795 C 106.616 136.343,106.106 139.056,105.699 139.795 C 105.233 140.638,104.952 142.502,104.764 146.000 C 103.437 170.687,103.443 173.248,104.837 177.000 C 105.831 179.674,106.690 184.523,107.029 189.373 C 107.385 194.470,108.039 197.235,109.331 199.104 C 110.035 200.122,110.506 201.558,110.808 203.600 C 111.396 207.590,111.914 209.198,112.999 210.400 C 114.248 211.783,114.639 212.652,115.167 215.222 C 115.492 216.799,116.084 218.000,117.207 219.359 C 118.077 220.412,118.976 221.968,119.204 222.815 C 119.434 223.670,120.128 224.768,120.759 225.279 C 121.386 225.785,122.395 227.321,123.000 228.691 C 123.683 230.236,124.615 231.574,125.454 232.214 C 126.199 232.782,127.173 233.963,127.620 234.839 C 128.067 235.715,128.857 236.625,129.376 236.862 C 129.895 237.098,130.627 237.972,131.002 238.804 C 131.473 239.849,132.151 240.527,133.196 240.998 C 134.028 241.373,134.902 242.105,135.138 242.624 C 135.375 243.143,136.285 243.933,137.161 244.380 C 138.037 244.827,139.218 245.801,139.786 246.546 C 140.426 247.385,141.764 248.317,143.309 249.000 C 144.679 249.605,146.215 250.614,146.721 251.241 C 147.238 251.880,148.332 252.566,149.212 252.803 C 150.075 253.036,151.591 253.927,152.581 254.783 C 154.017 256.027,154.997 256.478,157.433 257.020 C 159.509 257.482,160.887 258.049,161.743 258.792 C 163.338 260.180,164.854 260.634,169.677 261.171 C 173.815 261.631,174.822 261.933,176.400 263.188 C 178.101 264.541,183.465 264.870,201.400 264.721 C 218.701 264.577,218.668 264.580,221.600 262.618 C 222.420 262.069,224.160 261.495,225.800 261.231 C 230.495 260.475,230.707 260.396,232.380 258.773 C 233.272 257.908,234.316 257.199,234.700 257.198 C 236.517 257.192,238.667 256.210,239.985 254.785 C 240.763 253.943,242.140 252.963,243.044 252.607 C 243.948 252.250,244.926 251.511,245.219 250.964 C 245.512 250.418,246.482 249.637,247.375 249.230 C 248.269 248.823,250.170 247.393,251.600 246.052 C 253.030 244.711,254.314 243.611,254.453 243.607 C 254.593 243.603,255.313 242.768,256.053 241.751 C 256.794 240.734,258.175 239.040,259.123 237.985 C 260.070 236.931,261.020 235.468,261.232 234.734 C 261.465 233.932,262.124 233.081,262.884 232.600 C 263.794 232.025,264.381 231.153,264.972 229.500 C 266.718 224.620,267.205 227.566,267.178 242.846 C 267.142 263.201,266.809 267.621,264.877 273.400 C 263.623 277.150,263.190 279.190,262.897 282.723 C 262.592 286.397,262.360 287.448,261.659 288.323 C 259.894 290.525,259.574 291.131,258.988 293.383 C 258.614 294.819,257.867 296.296,257.005 297.303 C 256.245 298.191,255.351 299.851,255.020 300.991 C 254.587 302.480,254.137 303.191,253.423 303.517 C 252.873 303.768,251.980 304.856,251.423 305.955 C 250.227 308.315,249.308 309.322,246.493 311.356 C 245.334 312.193,244.215 313.198,244.006 313.589 C 243.797 313.980,242.797 314.689,241.786 315.165 C 240.718 315.666,239.663 316.532,239.273 317.226 C 238.898 317.893,238.157 318.514,237.600 318.630 C 233.810 319.415,231.376 320.240,230.381 321.077 C 228.982 322.254,227.685 322.651,224.122 322.992 C 219.957 323.390,215.278 324.382,212.400 325.477 C 208.414 326.993,192.611 326.736,189.200 325.099 C 187.122 324.101,179.434 322.800,175.622 322.800 C 174.194 322.800,172.408 322.039,170.424 320.585 C 169.667 320.031,168.587 319.474,168.024 319.348 C 164.722 318.611,163.804 318.221,162.412 316.963 C 161.563 316.196,160.088 315.344,159.134 315.069 C 157.791 314.681,157.256 314.265,156.761 313.223 C 156.386 312.434,155.559 311.614,154.761 311.239 C 153.965 310.865,153.170 310.078,152.846 309.342 C 152.535 308.637,151.666 307.754,150.869 307.334 C 150.031 306.893,149.107 305.932,148.622 304.998 C 148.169 304.124,147.334 303.188,146.767 302.916 C 145.900 302.500,145.617 301.902,144.990 299.155 C 144.445 296.771,143.902 295.480,142.980 294.376 C 142.089 293.309,141.573 292.118,141.229 290.332 C 140.072 284.326,139.442 284.078,124.910 283.919 L 114.020 283.800 112.922 284.897 C 111.363 286.455,111.210 294.394,112.704 296.267 C 114.032 297.933,114.316 298.789,114.829 302.680 C 115.344 306.587,115.899 307.980,117.307 308.903 C 117.979 309.343,118.408 310.204,118.777 311.855 C 119.194 313.716,119.646 314.528,121.019 315.881 C 121.965 316.814,122.863 317.987,123.015 318.488 C 123.369 319.653,124.777 321.200,125.484 321.200 C 125.783 321.200,126.368 321.991,126.782 322.958 C 127.373 324.336,127.841 324.818,128.945 325.182 C 130.027 325.539,130.461 325.973,130.818 327.055 C 131.182 328.159,131.664 328.627,133.042 329.218 C 134.009 329.632,134.800 330.241,134.800 330.570 C 134.800 331.472,136.229 332.622,138.013 333.157 C 138.887 333.419,139.888 334.067,140.235 334.597 C 140.872 335.570,144.459 337.600,145.540 337.600 C 145.861 337.600,146.770 338.294,147.561 339.143 C 148.799 340.471,149.387 340.758,151.774 341.202 C 153.720 341.565,154.807 341.998,155.417 342.656 C 156.704 344.045,158.701 344.733,162.972 345.258 C 166.225 345.658,166.986 345.895,168.046 346.841 C 169.857 348.458,172.326 348.862,182.200 349.161 C 190.933 349.424,192.045 349.608,193.182 350.978 C 194.090 352.072,205.941 351.876,207.381 350.743 C 208.741 349.673,212.339 349.256,220.600 349.209 C 230.110 349.155,232.777 348.648,235.672 346.340 C 236.506 345.675,237.588 345.415,240.549 345.165 C 244.568 344.826,246.467 344.141,247.800 342.549 C 248.362 341.878,249.311 341.465,250.992 341.160 C 253.890 340.634,255.272 339.960,256.125 338.658 C 256.501 338.085,257.585 337.404,258.721 337.026 C 259.903 336.633,261.157 335.831,261.902 334.989 C 262.578 334.225,263.402 333.600,263.732 333.600 C 264.205 333.600,269.305 329.333,271.400 327.184 C 271.620 326.958,272.991 325.550,274.447 324.054 C 275.903 322.558,277.301 320.705,277.555 319.936 C 277.809 319.167,278.536 318.154,279.171 317.685 C 279.879 317.161,280.578 316.069,280.981 314.859 C 281.341 313.774,282.245 312.259,282.989 311.492 C 284.217 310.228,284.590 309.351,285.370 305.888 C 285.508 305.277,286.084 304.377,286.649 303.888 C 288.179 302.566,288.681 301.329,289.207 297.587 C 289.539 295.229,289.983 293.756,290.669 292.739 C 292.192 290.482,292.783 287.908,293.148 281.957 C 293.414 277.608,293.648 276.208,294.284 275.142 C 296.801 270.928,296.754 274.749,296.333 110.584 C 296.208 61.708,296.157 58.503,295.495 57.490 C 294.453 55.898,293.632 55.800,281.309 55.800 L 270.018 55.800 268.909 56.909 L 267.800 58.017 267.600 72.548 C 267.442 84.049,267.286 87.217,266.851 87.740 C 266.006 88.757,265.739 88.571,264.607 86.178 C 264.029 84.956,263.113 83.571,262.572 83.101 C 262.031 82.630,261.164 81.319,260.645 80.186 C 259.409 77.485,250.626 68.538,247.784 67.083 C 246.693 66.525,245.567 65.683,245.283 65.213 C 244.999 64.742,243.981 64.020,243.020 63.609 C 242.060 63.197,240.708 62.238,240.015 61.477 C 239.100 60.471,238.079 59.904,236.278 59.400 C 234.721 58.964,233.257 58.217,232.339 57.390 C 231.283 56.438,230.230 55.950,228.539 55.628 C 224.865 54.928,223.125 54.384,221.400 53.393 C 218.948 51.984,204.743 50.410,198.800 50.888 C 198.250 50.932,195.910 51.013,193.600 51.067 M213.114 53.173 C 215.233 53.418,216.444 53.799,217.555 54.569 C 218.533 55.247,220.219 55.841,222.241 56.220 C 228.841 57.459,229.388 57.625,230.597 58.767 C 231.283 59.414,233.004 60.287,234.600 60.795 C 236.382 61.363,237.820 62.122,238.556 62.882 C 239.192 63.539,240.489 64.410,241.439 64.817 C 242.389 65.224,243.399 65.942,243.683 66.412 C 243.967 66.882,244.920 67.634,245.800 68.082 C 248.376 69.395,257.865 78.997,259.222 81.664 C 259.856 82.909,260.876 84.286,261.488 84.724 C 262.143 85.193,262.883 86.325,263.288 87.478 C 264.398 90.643,265.589 91.507,267.594 90.603 C 269.527 89.731,269.343 91.448,269.375 73.987 C 269.403 58.549,269.440 58.329,272.077 57.865 C 275.237 57.310,291.377 57.434,292.583 58.023 C 294.944 59.174,294.873 57.508,294.816 110.600 C 294.788 137.220,294.870 179.682,295.000 204.959 C 295.208 245.569,295.164 251.127,294.623 252.714 C 294.139 254.135,294.062 255.603,294.255 259.755 C 294.446 263.884,294.365 265.468,293.871 267.200 C 293.236 269.429,292.633 273.662,292.018 280.200 C 291.612 284.506,291.391 285.480,290.116 288.560 C 289.579 289.858,288.803 292.687,288.391 294.846 C 287.618 298.903,287.410 299.466,285.806 301.829 C 285.283 302.600,284.473 304.380,284.005 305.785 C 283.537 307.190,282.879 308.568,282.543 308.847 C 282.206 309.127,281.242 310.725,280.400 312.400 C 279.558 314.075,278.592 315.675,278.253 315.956 C 277.914 316.238,277.148 317.308,276.552 318.334 C 274.642 321.623,264.736 331.378,261.726 332.935 C 261.106 333.256,260.256 333.896,259.839 334.357 C 259.421 334.819,258.149 335.622,257.013 336.143 C 255.877 336.663,254.178 337.645,253.239 338.326 C 252.299 339.007,250.511 339.856,249.265 340.213 C 248.019 340.571,245.920 341.461,244.600 342.192 C 242.974 343.092,241.220 343.668,239.161 343.978 C 236.281 344.412,233.466 345.183,229.742 346.556 C 225.537 348.106,198.472 349.791,192.800 348.855 C 191.370 348.619,187.256 348.227,183.657 347.985 C 178.368 347.628,176.375 347.314,173.257 346.349 C 171.136 345.692,167.690 344.800,165.600 344.367 C 163.510 343.934,160.630 343.028,159.200 342.354 C 157.770 341.681,155.430 340.772,154.000 340.336 C 152.570 339.899,150.667 339.027,149.772 338.398 C 148.876 337.768,147.166 336.817,145.972 336.284 C 144.777 335.752,143.440 334.910,143.000 334.414 C 142.560 333.918,141.120 332.972,139.800 332.311 C 137.298 331.058,136.428 330.325,131.051 324.949 C 126.144 320.041,125.007 318.766,123.787 316.800 C 123.173 315.810,122.171 314.370,121.562 313.600 C 120.952 312.830,120.090 311.232,119.646 310.049 C 119.202 308.866,118.371 307.224,117.800 306.400 C 117.068 305.344,116.458 303.436,115.738 299.951 C 113.559 289.410,113.563 289.557,115.411 287.709 L 116.822 286.298 121.111 286.562 C 123.470 286.707,128.190 286.910,131.600 287.013 C 138.768 287.230,139.322 287.505,139.807 291.093 C 140.177 293.829,140.791 295.627,141.825 297.000 C 142.322 297.660,143.044 299.172,143.430 300.361 C 144.215 302.777,146.699 306.000,150.264 309.229 C 150.889 309.795,151.760 310.659,152.200 311.148 C 153.978 313.126,157.556 316.400,157.941 316.400 C 158.167 316.400,159.174 317.112,160.179 317.982 C 161.780 319.367,164.017 320.391,165.460 320.398 C 165.713 320.399,166.883 321.052,168.060 321.850 C 170.555 323.540,171.410 323.826,175.716 324.416 C 177.474 324.657,179.833 325.196,180.957 325.613 C 189.508 328.793,214.175 329.146,220.049 326.174 C 221.112 325.636,223.834 324.913,226.449 324.475 C 230.266 323.835,231.568 323.412,234.517 321.856 C 236.452 320.835,238.288 320.000,238.598 320.000 C 238.908 320.000,239.755 319.394,240.481 318.652 C 241.206 317.911,242.549 316.926,243.464 316.463 C 246.025 315.166,251.102 310.468,252.408 308.186 C 253.050 307.064,253.960 305.799,254.431 305.373 C 254.901 304.948,255.741 303.700,256.297 302.600 C 256.853 301.500,257.729 300.097,258.243 299.482 C 258.758 298.867,259.551 297.157,260.006 295.682 C 260.460 294.207,261.332 292.370,261.943 291.600 C 263.381 289.787,263.471 289.516,264.230 284.681 C 264.583 282.437,265.402 279.264,266.051 277.630 C 267.007 275.226,267.308 273.664,267.633 269.430 C 267.854 266.554,268.226 261.950,268.459 259.200 C 269.049 252.257,268.771 227.299,268.091 226.109 C 266.678 223.636,265.411 224.063,264.016 227.482 C 263.496 228.757,262.380 230.561,261.535 231.491 C 260.691 232.421,260.000 233.449,260.000 233.776 C 260.000 234.102,259.190 235.203,258.200 236.221 C 257.210 237.240,256.400 238.205,256.400 238.366 C 256.400 239.098,247.993 246.994,245.723 248.393 C 245.105 248.774,244.240 249.490,243.800 249.985 C 243.360 250.480,242.280 251.246,241.400 251.687 C 240.520 252.127,239.338 252.920,238.773 253.449 C 238.208 253.978,236.248 255.032,234.418 255.792 C 232.588 256.553,230.794 257.444,230.431 257.772 C 229.415 258.691,227.310 259.444,223.785 260.148 C 222.016 260.501,219.226 261.278,217.585 261.874 L 214.600 262.959 200.400 263.108 C 186.905 263.251,186.031 263.215,182.800 262.396 C 176.807 260.876,174.685 260.418,170.600 259.764 C 167.828 259.321,165.986 258.778,164.600 257.995 C 163.500 257.374,161.434 256.565,160.009 256.198 C 157.081 255.444,156.167 255.034,154.947 253.924 C 154.478 253.498,153.038 252.723,151.747 252.202 C 150.456 251.681,148.767 250.727,147.993 250.083 C 147.220 249.439,145.820 248.520,144.882 248.042 C 143.945 247.564,142.214 246.324,141.035 245.286 C 139.857 244.249,137.949 242.680,136.796 241.800 C 134.191 239.811,132.319 237.941,130.000 235.010 C 129.010 233.759,127.435 231.844,126.500 230.754 C 125.565 229.665,124.369 227.924,123.843 226.887 C 123.317 225.849,122.494 224.646,122.015 224.212 C 121.535 223.779,120.519 222.073,119.755 220.421 C 118.992 218.769,118.030 217.053,117.618 216.608 C 117.206 216.164,116.565 214.810,116.193 213.600 C 115.821 212.390,114.818 209.960,113.965 208.200 C 113.018 206.246,112.114 203.520,111.646 201.200 C 111.223 199.110,110.495 196.517,110.027 195.439 C 108.827 192.672,108.497 190.947,107.593 182.687 C 107.154 178.679,106.618 174.680,106.402 173.800 C 106.185 172.920,105.986 169.230,105.959 165.600 C 105.889 156.101,105.967 154.130,106.465 152.898 C 106.709 152.294,107.045 149.370,107.212 146.400 C 107.906 134.081,108.864 127.313,110.366 124.138 C 111.481 121.780,112.027 119.815,112.793 115.400 C 113.050 113.921,113.745 112.132,114.605 110.740 C 115.372 109.497,116.000 108.288,116.000 108.054 C 116.000 106.927,117.394 103.643,118.429 102.331 C 119.067 101.523,119.953 99.887,120.398 98.697 C 120.844 97.506,121.674 96.097,122.243 95.566 C 123.369 94.515,124.537 92.422,124.944 90.727 C 125.086 90.136,125.744 89.267,126.407 88.795 C 127.070 88.323,127.899 87.366,128.249 86.668 C 128.854 85.465,130.824 83.221,133.343 80.868 C 133.972 80.281,134.872 79.368,135.343 78.841 C 136.588 77.447,141.708 72.450,143.711 70.673 C 144.658 69.834,146.176 68.814,147.085 68.407 C 147.994 68.000,149.036 67.212,149.400 66.656 C 149.836 65.990,150.918 65.360,152.562 64.813 C 154.174 64.276,155.539 63.488,156.405 62.595 C 157.248 61.726,158.281 61.120,159.174 60.971 C 162.154 60.476,165.010 59.494,166.075 58.599 C 167.439 57.450,169.039 56.945,172.395 56.603 C 173.823 56.458,176.253 55.881,177.795 55.322 C 184.254 52.981,185.257 52.860,198.200 52.847 C 204.800 52.840,211.511 52.987,213.114 53.173 M190.058 73.005 C 188.439 73.298,186.258 73.907,185.211 74.357 C 184.164 74.808,181.978 75.380,180.354 75.630 C 177.022 76.142,174.996 76.877,173.786 78.013 C 173.333 78.439,171.891 79.156,170.582 79.606 C 169.273 80.056,167.572 80.928,166.801 81.543 C 166.031 82.158,164.500 83.178,163.400 83.810 C 162.300 84.442,160.647 85.688,159.726 86.579 C 158.806 87.471,157.636 88.594,157.126 89.076 C 155.402 90.708,153.915 92.195,152.856 93.351 C 152.275 93.984,151.065 95.244,150.166 96.151 C 149.267 97.058,148.208 98.340,147.813 99.000 C 147.418 99.660,146.420 101.100,145.597 102.200 C 144.773 103.300,143.883 104.874,143.619 105.699 C 143.355 106.523,142.523 107.934,141.771 108.834 C 140.873 109.910,140.054 111.620,139.381 113.825 C 138.818 115.669,138.186 117.285,137.976 117.415 C 137.110 117.950,136.309 120.306,135.420 124.937 C 134.902 127.632,134.189 130.531,133.835 131.379 C 131.513 136.936,130.074 157.250,131.360 166.314 C 131.712 168.796,132.003 172.036,132.008 173.514 C 132.020 177.741,133.001 183.568,134.163 186.321 C 134.749 187.707,135.410 190.300,135.634 192.082 C 136.059 195.475,136.665 197.323,137.943 199.123 C 138.363 199.715,139.026 201.370,139.416 202.800 C 140.247 205.845,140.892 207.246,141.816 208.013 C 142.184 208.318,142.887 209.475,143.379 210.584 C 144.307 212.677,147.496 217.239,149.613 219.505 C 150.284 220.223,151.200 221.433,151.649 222.192 C 152.097 222.952,153.037 223.928,153.738 224.362 C 154.438 224.795,155.417 225.697,155.913 226.368 C 156.409 227.038,157.396 227.880,158.107 228.237 C 158.818 228.595,160.030 229.489,160.800 230.224 C 161.570 230.959,163.100 231.950,164.200 232.426 C 165.300 232.901,166.830 233.879,167.600 234.598 C 168.375 235.321,169.982 236.211,171.200 236.592 C 172.410 236.970,174.125 237.783,175.010 238.400 C 176.989 239.778,178.429 240.160,184.800 240.999 C 188.294 241.459,190.426 241.961,191.880 242.666 C 194.847 244.105,207.717 243.972,211.000 242.468 C 212.100 241.965,215.159 241.185,217.798 240.736 C 222.638 239.912,224.228 239.372,225.177 238.228 C 225.462 237.884,226.889 237.234,228.348 236.784 C 230.072 236.252,231.490 235.494,232.400 234.618 C 233.170 233.877,234.430 233.013,235.200 232.697 C 238.496 231.347,250.299 219.853,252.609 215.745 C 253.368 214.395,254.267 213.183,254.608 213.052 C 254.948 212.922,255.756 211.636,256.402 210.196 C 257.048 208.755,258.036 206.975,258.597 206.240 C 259.157 205.505,260.034 203.465,260.545 201.707 C 261.056 199.949,261.958 197.877,262.548 197.103 C 263.355 196.045,263.827 194.616,264.445 191.355 C 264.898 188.968,265.694 186.003,266.214 184.767 C 266.734 183.530,267.361 181.007,267.606 179.159 C 269.851 162.227,269.398 140.388,266.633 132.266 C 265.872 130.030,264.956 126.593,264.599 124.630 C 263.970 121.179,263.270 119.256,262.186 118.000 C 261.901 117.670,261.366 116.230,260.997 114.800 C 260.120 111.398,259.526 110.058,258.250 108.600 C 257.672 107.940,256.907 106.520,256.550 105.446 C 256.192 104.371,255.315 102.841,254.602 102.046 C 253.888 101.250,252.850 99.700,252.295 98.600 C 251.740 97.500,250.884 96.240,250.391 95.800 C 249.899 95.360,249.071 94.330,248.550 93.511 C 248.030 92.693,247.081 91.752,246.441 91.421 C 245.801 91.090,244.912 90.230,244.465 89.510 C 244.018 88.789,243.014 87.858,242.234 87.441 C 241.453 87.023,240.539 86.261,240.201 85.746 C 239.864 85.231,238.826 84.426,237.894 83.957 C 236.962 83.488,235.441 82.488,234.513 81.736 C 233.585 80.983,231.818 80.035,230.587 79.629 C 229.355 79.223,227.954 78.531,227.474 78.092 C 225.964 76.712,224.338 76.117,219.625 75.219 C 217.109 74.740,214.010 73.909,212.737 73.374 C 209.982 72.214,195.708 71.982,190.058 73.005 M211.360 74.988 C 212.719 75.646,214.669 76.116,217.200 76.396 C 223.121 77.051,223.457 77.143,225.185 78.588 C 226.080 79.335,227.778 80.228,228.960 80.571 C 230.204 80.933,231.925 81.871,233.052 82.802 C 234.121 83.686,235.740 84.693,236.649 85.040 C 237.559 85.388,238.529 86.093,238.804 86.608 C 239.080 87.123,240.047 87.941,240.953 88.424 C 241.859 88.908,242.962 89.863,243.405 90.547 C 243.848 91.231,244.783 92.152,245.482 92.595 C 246.182 93.038,246.970 93.902,247.233 94.517 C 247.496 95.131,248.289 96.121,248.995 96.717 C 249.701 97.312,250.739 98.818,251.300 100.061 C 251.861 101.305,252.883 102.824,253.571 103.437 C 254.379 104.157,255.043 105.314,255.447 106.703 C 255.791 107.887,256.597 109.452,257.238 110.182 C 258.557 111.685,259.599 113.934,259.602 115.287 C 259.606 116.889,260.401 119.140,261.370 120.291 C 262.551 121.694,263.051 123.462,263.834 129.000 C 264.177 131.420,264.887 134.480,265.413 135.800 C 268.365 143.207,268.223 170.208,265.181 180.000 C 264.327 182.750,263.523 185.990,263.394 187.200 C 262.908 191.785,262.300 194.424,261.621 194.910 C 260.390 195.791,259.658 197.354,259.179 200.129 C 258.796 202.347,258.424 203.186,257.189 204.612 C 256.354 205.577,255.554 206.959,255.410 207.683 C 254.957 209.974,254.375 211.083,253.389 211.532 C 252.863 211.772,252.043 212.740,251.566 213.684 C 251.090 214.628,249.797 216.390,248.693 217.600 C 242.937 223.909,240.896 225.926,238.968 227.213 C 237.804 227.991,236.483 229.095,236.033 229.667 C 235.583 230.239,234.447 231.014,233.507 231.390 C 232.568 231.765,231.350 232.605,230.800 233.256 C 230.038 234.158,229.092 234.621,226.822 235.200 C 225.184 235.618,223.384 236.334,222.822 236.791 C 220.994 238.277,219.114 238.870,215.021 239.250 C 212.810 239.456,209.920 239.797,208.600 240.009 C 204.873 240.607,195.016 240.488,191.800 239.807 C 190.260 239.481,187.650 239.206,186.000 239.197 C 182.028 239.175,180.113 238.690,177.756 237.110 C 176.680 236.389,174.483 235.459,172.872 235.043 C 170.707 234.484,169.778 234.032,169.303 233.308 C 168.950 232.769,167.709 231.908,166.546 231.393 C 165.383 230.879,163.808 229.835,163.048 229.074 C 162.287 228.313,160.844 227.377,159.842 226.995 C 158.592 226.518,157.765 225.868,157.212 224.930 C 156.760 224.164,155.795 223.306,155.022 222.983 C 154.032 222.570,153.424 221.924,152.878 220.703 C 152.459 219.766,151.708 218.640,151.210 218.200 C 150.712 217.760,149.676 216.410,148.908 215.200 C 148.140 213.990,147.005 212.527,146.385 211.949 C 145.764 211.370,145.057 210.153,144.812 209.243 C 144.567 208.334,143.833 206.982,143.182 206.240 C 141.922 204.805,140.801 202.490,140.798 201.313 C 140.793 199.746,139.893 197.505,138.740 196.193 C 137.650 194.951,137.463 194.338,136.949 190.303 C 136.337 185.512,135.172 180.430,134.140 178.049 C 131.980 173.069,131.973 142.646,134.130 137.173 C 135.387 133.982,135.872 132.079,136.210 129.000 C 136.653 124.971,137.519 121.755,138.584 120.185 C 139.142 119.363,139.783 117.950,140.009 117.045 C 140.234 116.140,140.611 114.659,140.847 113.752 C 141.082 112.846,141.884 111.406,142.630 110.552 C 143.375 109.699,144.273 108.145,144.625 107.099 C 144.977 106.053,145.893 104.446,146.661 103.527 C 147.429 102.608,148.430 101.125,148.886 100.231 C 149.342 99.338,150.544 97.769,151.557 96.744 C 152.571 95.720,153.697 94.575,154.060 94.201 C 155.571 92.642,157.626 90.607,160.707 87.618 C 161.717 86.638,163.582 85.345,164.851 84.745 C 166.120 84.145,167.563 83.189,168.057 82.621 C 168.624 81.968,169.948 81.292,171.650 80.785 C 173.270 80.303,174.996 79.439,175.977 78.619 C 177.256 77.551,178.104 77.199,179.904 76.992 C 183.796 76.542,191.257 75.163,192.766 74.615 C 195.680 73.555,208.952 73.822,211.360 74.988 M0.000 361.000 L 0.000 366.000 1.000 366.000 C 2.596 366.000,2.503 369.071,0.900 369.313 L -0.200 369.480 0.900 369.540 C 1.939 369.597,2.000 369.707,2.000 371.520 C 2.000 372.576,2.200 373.640,2.445 373.885 C 2.704 374.144,2.750 374.554,2.556 374.865 C 2.056 375.667,2.019 376.400,2.478 376.400 C 2.702 376.400,2.786 376.661,2.663 376.980 C 2.515 377.367,2.633 377.485,3.020 377.337 C 3.339 377.214,3.600 377.298,3.600 377.522 C 3.600 377.962,4.601 377.932,5.055 377.478 C 5.425 377.108,6.012 377.123,5.953 377.500 C 5.770 378.654,6.084 380.278,6.500 380.332 C 6.775 380.368,7.660 380.443,8.467 380.499 C 10.319 380.626,10.397 380.716,10.730 383.061 C 10.994 384.921,11.062 385.005,12.401 385.133 C 14.181 385.302,14.800 385.828,14.800 387.169 C 14.800 388.575,15.478 389.200,17.004 389.200 C 18.869 389.200,19.556 389.934,19.656 392.033 C 19.703 393.042,19.936 393.887,20.171 393.912 C 21.320 394.033,23.104 394.019,24.025 393.880 C 26.169 393.558,26.907 394.209,26.663 396.204 L 26.442 398.004 28.521 397.758 C 29.665 397.623,104.310 397.445,194.400 397.361 C 284.490 397.278,360.557 397.186,363.437 397.157 C 366.341 397.128,369.015 397.287,369.437 397.513 C 370.376 398.014,373.122 398.050,373.422 397.565 C 373.543 397.369,373.317 397.331,372.921 397.479 C 372.318 397.706,372.280 397.651,372.690 397.145 C 372.996 396.769,373.039 396.399,372.806 396.166 C 371.800 395.160,373.357 393.797,375.415 393.881 C 377.316 393.959,378.935 393.965,379.808 393.898 C 380.040 393.880,380.170 393.059,380.109 391.997 C 379.990 389.937,380.789 389.200,383.139 389.200 C 384.519 389.200,385.200 388.539,385.200 387.200 C 385.200 385.815,385.888 385.200,387.437 385.200 C 388.811 385.200,389.200 384.680,389.200 382.844 C 389.200 381.136,389.983 380.441,392.019 380.345 C 393.913 380.255,393.944 380.216,394.102 377.700 C 394.137 377.148,394.515 377.048,394.945 377.478 C 395.399 377.932,396.400 377.962,396.400 377.522 C 396.400 377.298,396.661 377.214,396.980 377.337 C 397.367 377.485,397.485 377.367,397.337 376.980 C 397.214 376.661,397.298 376.400,397.522 376.400 C 397.981 376.400,397.944 375.667,397.444 374.865 C 397.250 374.554,397.296 374.144,397.555 373.885 C 397.800 373.640,398.000 372.588,398.000 371.547 C 398.000 369.788,398.078 369.641,399.100 369.487 L 400.200 369.320 399.100 369.260 C 397.489 369.172,397.392 366.000,399.000 366.000 L 400.000 366.000 400.000 361.000 L 400.000 356.000 399.043 356.000 C 397.902 356.000,397.773 356.289,396.778 361.115 C 396.357 363.159,395.823 365.184,395.592 365.615 C 395.361 366.047,395.297 366.400,395.450 366.400 C 395.604 366.400,395.070 366.963,394.264 367.651 C 393.459 368.339,392.800 369.052,392.800 369.236 C 392.800 370.282,391.042 373.995,390.014 375.121 C 389.353 375.844,388.533 377.373,388.191 378.518 C 386.966 382.631,382.925 386.682,378.890 387.841 C 377.631 388.203,375.880 389.025,375.000 389.667 C 374.120 390.308,371.932 391.282,370.139 391.829 C 368.345 392.377,366.648 393.101,366.368 393.439 C 364.822 395.301,374.483 395.198,199.732 395.214 L 35.823 395.229 34.163 394.059 C 33.250 393.416,31.805 392.663,30.951 392.387 C 27.456 391.256,26.201 390.704,25.180 389.844 C 24.054 388.897,22.873 388.379,20.176 387.651 C 17.790 387.008,12.984 382.114,12.224 379.555 C 11.517 377.174,10.966 376.126,9.586 374.537 C 8.982 373.842,8.181 372.312,7.806 371.137 C 7.371 369.775,6.613 368.528,5.717 367.700 C 4.944 366.985,4.428 366.400,4.570 366.400 C 4.712 366.400,4.631 366.032,4.390 365.582 C 4.026 364.902,2.501 358.211,2.320 356.500 C 2.291 356.225,1.757 356.000,1.133 356.000 L 0.000 356.000 0.000 361.000 M22.400 396.437 C 22.854 396.758,22.878 396.910,22.498 397.065 C 22.221 397.177,22.109 397.452,22.248 397.677 C 22.407 397.935,22.629 397.886,22.850 397.543 C 23.140 397.093,23.267 397.103,23.594 397.600 C 23.885 398.044,23.989 398.063,23.994 397.671 C 24.002 396.990,23.010 395.998,22.329 396.006 C 21.934 396.011,21.952 396.120,22.400 396.437 " stroke="none" fill="#b2a285" fill-rule="evenodd"></path></g></svg>
